<?xml version="1.0" encoding="utf-8"?>
<!-- Generator: Adobe Illustrator 24.1.2, SVG Export Plug-In . SVG Version: 6.00 Build 0)  -->
<svg version="1.1" id="Layer_1" xmlns="http://www.w3.org/2000/svg" xmlns:xlink="http://www.w3.org/1999/xlink" x="0px" y="0px"
	 viewBox="0 0 28 28" style="enable-background:new 0 0 28 28;" xml:space="preserve">
<style type="text/css">
	.st0{fill-rule:evenodd;clip-rule:evenodd;fill:#FFFFFF;}
	.st1{fill:#0F1762;}
</style>
<desc>Created with Sketch.</desc>
<g id="Page-1">
	<g id="_x30_5-restaurant" transform="translate(-441.000000, -621.000000)">
		<g id="sliders" transform="translate(187.000000, 552.000000)">
			<g id="icon_expensive-" transform="translate(254.000000, 69.000000)">
				<rect id="Rectangle-Copy-4" x="0.9" y="0.9" class="st0" width="26.1" height="26.1"/>
				<path id="Shape" class="st1" d="M2.8,7.2v8.9c0,0.4,0.3,0.7,0.7,0.7h16.9c0.4,0,0.7-0.3,0.7-0.7V7.2c0-0.4-0.3-0.7-0.7-0.7H3.5
					C3.1,6.5,2.8,6.8,2.8,7.2z M10.2,13.1l0.1-0.2c0.1-0.1,0.1-0.1,0.2-0.1c0.1,0,0.2,0,0.3,0.1c0.2,0.2,0.5,0.3,0.8,0.4
					c0.2,0,0.3,0,0.5-0.2c0.1-0.1,0.1-0.2,0.1-0.3c0-0.4-0.3-0.6-0.8-0.8c-0.3-0.1-0.5-0.3-0.7-0.5c-0.1-0.1-0.2-0.2-0.3-0.4
					c-0.1-0.2-0.1-0.4-0.1-0.5c0-0.6,0.4-1.2,1-1.3l0,0V8.5c0-0.1,0-0.2,0.1-0.2c0.1-0.1,0.1-0.1,0.2-0.1h0.1c0.2,0,0.3,0.2,0.3,0.3
					v0.5l0.1,0c0.3,0.1,0.6,0.2,0.8,0.4l0,0c0.1,0.1,0.1,0.3,0,0.5l-0.1,0.2c-0.1,0.1-0.3,0.1-0.5,0c-0.2-0.2-0.4-0.2-0.6-0.3
					c-0.1,0-0.3,0-0.4,0.1c-0.1,0.1-0.1,0.2-0.1,0.4c0,0.3,0.3,0.5,0.7,0.7c0.3,0.1,0.6,0.3,0.8,0.5c0.1,0.1,0.2,0.3,0.3,0.4
					c0.1,0.2,0.1,0.4,0.1,0.6c0,0.7-0.4,1.2-1,1.4l0,0v0.5c0,0.1,0,0.2-0.1,0.2c-0.1,0.1-0.1,0.1-0.2,0.1h-0.1c-0.1,0-0.2,0-0.2-0.1
					c-0.1-0.1-0.1-0.2-0.1-0.2v-0.5l-0.1,0c-0.3-0.1-0.6-0.3-0.9-0.5C10.1,13.5,10.1,13.3,10.2,13.1L10.2,13.1z M7.3,20h16.6
					c0.2,0,0.3-0.2,0.3-0.3v-8.6c0-0.1,0-0.2,0.1-0.2c0.1-0.1,0.1-0.1,0.2-0.1h0.4c0.2,0,0.3,0.2,0.3,0.3c0,0,0,6.2,0,8.8
					c0,0.3-0.1,0.6-0.3,0.8c-0.2,0.2-0.5,0.3-0.8,0.3H7.3c-0.1,0-0.2,0-0.2-0.1c-0.1-0.1-0.1-0.2-0.1-0.2v-0.4
					C6.9,20.2,7.1,20,7.3,20z M23.1,9c0,0,0,6.2,0,8.8c0,0.3-0.1,0.6-0.3,0.8c-0.2,0.2-0.5,0.3-0.8,0.3H5.2c-0.1,0-0.2,0-0.2-0.1
					c-0.1-0.1-0.1-0.2-0.1-0.2v-0.4c0-0.2,0.2-0.3,0.3-0.3h16.6c0.2,0,0.3-0.1,0.3-0.3V9c0-0.2,0.1-0.3,0.3-0.3h0.4
					C23,8.7,23.1,8.8,23.1,9z"/>
			</g>
		</g>
	</g>
</g>
</svg>
