<?xml version="1.0" encoding="UTF-8"?>
<svg width="62px" height="91px" viewBox="0 0 62 91" version="1.1" xmlns="http://www.w3.org/2000/svg" xmlns:xlink="http://www.w3.org/1999/xlink">
    <!-- Generator: Sketch 63.1 (92452) - https://sketch.com -->
    <title>icon_location</title>
    <desc>Created with Sketch.</desc>
    <g id="Page-1" stroke="none" stroke-width="1" fill="none" fill-rule="evenodd">
        <g id="05-restaurant" transform="translate(-1243.000000, -406.000000)" fill="#DD2246" fill-rule="nonzero">
            <path d="M1274,406 C1256.87791,406 1243,419.633143 1243,436.336 C1243,442.926857 1245.16279,449.246857 1249.12791,454.483429 L1271.02616,483.555429 C1271.74709,484.458286 1272.82849,485 1274,485 C1274,485 1274,485 1274,485 C1275.17151,485 1276.25291,484.458286 1276.97384,483.555429 L1298.87209,454.483429 C1302.92733,449.246857 1305,442.926857 1305,436.336 C1305,419.633143 1291.12209,406 1274,406 Z M1274,449 C1266.85915,449 1261,443.140845 1261,436 C1261,428.859155 1266.85915,423 1274,423 C1281.14085,423 1287,428.767606 1287,435.908451 C1287,443.140845 1281.14085,449 1274,449 Z M1274,497 C1271.80282,497 1270,495.422535 1270,493.5 C1270,491.577465 1271.80282,490 1274,490 C1276.19718,490 1278,491.552817 1278,493.475352 C1278,495.422535 1276.19718,497 1274,497 Z" id="icon_location"></path>
        </g>
    </g>
</svg>