<?xml version="1.0" encoding="UTF-8"?>
<svg width="28px" height="28px" viewBox="0 0 28 28" version="1.1" xmlns="http://www.w3.org/2000/svg" xmlns:xlink="http://www.w3.org/1999/xlink">
    <!-- Generator: Sketch 63.1 (92452) - https://sketch.com -->
    <title>icon_slow</title>
    <desc>Created with Sketch.</desc>
    <g id="Page-1" stroke="none" stroke-width="1" fill="none" fill-rule="evenodd">
        <g id="05-restaurant" transform="translate(-187.000000, -552.000000)">
            <g id="sliders" transform="translate(187.000000, 552.000000)">
                <g id="icon_slow">
                    <rect id="Rectangle" fill="#FFFFFF" x="0" y="0" width="28" height="28"></rect>
                    <path d="M20.803873,10.8494593 C17.4209596,9.57263783 15.4189494,7.24927552 12.579082,7.24953572 C12.4037044,7.24953572 12.224684,7.25838266 12.0425411,7.27685715 C5.86399503,7.90446941 6.25143892,13.0684798 3.73916844,15.0158472 C2.84458679,15.7090309 6.43384199,17.1745003 10.4498319,17.1745003 C11.2002605,17.1745003 11.9660411,17.1232401 12.7198524,17.0064084 C17.1375974,16.3205105 22.2105363,11.3800154 20.803873,10.8494593 Z" id="Path" fill="#0F1762" fill-rule="nonzero"></path>
                    <path d="M3.36499496,16.3322196 C3.21095414,16.3842605 3.02464802,16.4480105 2.79124495,16.522689 C1.84150002,16.8271278 1.23366327,17.3597656 1.23262129,17.5843217 C1.23054082,18.0467044 4.02591335,18.0055921 5.51584196,17.6886636 C5.85670932,17.6163268 6.05082157,17.5507554 6.14215321,17.487786 C5.95975014,17.4417299 5.77942871,17.3938523 5.60379095,17.3423319 C4.4175205,16.9970411 3.7490562,16.6382197 3.36499496,16.3322196 Z" id="Path" fill="#0F1762" fill-rule="nonzero"></path>
                    <path d="M18.5099138,15.2687655 C17.8934903,15.716837 17.0345566,16.2799186 16.033031,16.7727452 C16.0340719,16.8055309 16.13373,16.9054493 16.2674749,17.3222962 C16.4017402,17.7391432 16.4519596,18.427383 16.4488372,18.9813575 C16.4462351,19.4814697 16.7574392,19.4325514 17.0566739,19.5855514 C17.3918168,19.7567657 18.4115566,19.7643116 19.5080566,19.7060259 C19.8928985,19.6852095 20.0266434,19.6893728 19.9688781,19.0539544 C19.7555107,16.7001482 18.5099138,15.2687655 18.5099138,15.2687655 Z" id="Path" fill="#0F1762" fill-rule="nonzero"></path>
                    <path d="M6.64903077,17.6048778 C6.64070424,17.6236125 6.6321175,17.6423472 6.62509199,17.6631636 C6.43358179,18.2340513 6.29931648,19.4775667 7.00394915,19.6558065 C7.75099509,19.8449749 8.62892368,19.8251993 9.50242881,19.8067248 C9.76341351,19.8012606 10.0124288,19.6001228 10.0769594,19.369582 C10.2231941,18.8452707 10.1433115,18.354786 9.84199515,17.9980462 C8.76136756,17.9605768 7.6690308,17.8250105 6.64903077,17.6048778 Z" id="Path" fill="#0F1762" fill-rule="nonzero"></path>
                    <path d="M26.2371946,10.5340919 C25.5869446,9.29552047 23.7837302,9.39413782 22.7642506,10.0719695 C22.4121945,10.3058929 22.1267506,10.617097 21.8511945,10.9379287 C21.8772149,11.0672501 21.8839802,11.2043777 21.8688883,11.3477501 C21.7512761,12.4825002 20.2363679,13.8894237 19.301975,14.6570257 C19.301975,14.6570257 19.301975,14.6570257 19.3022352,14.6570257 C19.477873,14.7871278 20.0370516,14.9796788 20.2928322,14.9965921 C21.8374036,15.0998931 23.2052965,14.9185308 24.5979088,14.2105155 C25.8383017,13.5795206 26.9753936,11.9399746 26.2371946,10.5340919 Z M24.0566843,11.6839338 C23.7392353,11.6839338 23.4821537,11.4268522 23.4821537,11.1094032 C23.4821537,10.7919542 23.7392353,10.5348725 24.0566843,10.5348725 C24.3738731,10.5348725 24.6312149,10.7919542 24.6312149,11.1094032 C24.6312149,11.4268522 24.3738731,11.6839338 24.0566843,11.6839338 Z" id="Shape" fill="#0F1762" fill-rule="nonzero"></path>
                </g>
            </g>
        </g>
    </g>
</svg>