<?xml version="1.0" encoding="utf-8"?>
<!-- Generator: Adobe Illustrator 24.1.0, SVG Export Plug-In . SVG Version: 6.00 Build 0)  -->
<svg version="1.1" id="Layer_1" xmlns="http://www.w3.org/2000/svg" xmlns:xlink="http://www.w3.org/1999/xlink" x="0px" y="0px"
	 viewBox="0 0 28 28" style="enable-background:new 0 0 28 28;" xml:space="preserve">
<style type="text/css">
	.st0{fill-rule:evenodd;clip-rule:evenodd;fill:#FFFFFF;}
	.st1{fill:#0F1762;}
</style>
<desc>Created with Sketch.</desc>
<g id="Page-1_1_">
	<g id="_x30_5-restaurant_1_" transform="translate(-441.000000, -621.000000)">
		<g id="sliders_1_" transform="translate(187.000000, 552.000000)">
			<g id="icon_expensive-" transform="translate(254.000000, 69.000000)">
				<rect id="Rectangle-Copy-4" x="-0.3" y="0" class="st0" width="28" height="28"/>
				<path id="Shape_1_" class="st1" d="M1.7,6.7v9.6C1.7,16.7,2,17,2.4,17h18.1c0.4,0,0.7-0.3,0.7-0.7V6.7c0-0.4-0.3-0.7-0.7-0.7
					H2.4C2,6,1.7,6.3,1.7,6.7z M9.6,13.1l0.1-0.2c0.1-0.1,0.1-0.1,0.2-0.2c0.1,0,0.2,0,0.3,0.1c0.3,0.2,0.6,0.3,0.9,0.4
					c0.2,0,0.4-0.1,0.5-0.2c0.1-0.1,0.1-0.2,0.1-0.4c0-0.4-0.3-0.6-0.8-0.9c-0.3-0.1-0.6-0.3-0.8-0.5c-0.1-0.1-0.2-0.3-0.3-0.4
					c-0.1-0.2-0.1-0.4-0.1-0.6c0-0.7,0.4-1.3,1-1.4h0.1V8.2c0-0.1,0-0.2,0.1-0.3s0.2-0.1,0.3-0.1h0.2c0.2,0,0.4,0.2,0.4,0.4v0.6h0.1
					c0.3,0.1,0.6,0.2,0.8,0.4l0,0c0.1,0.1,0.1,0.4,0,0.5l-0.2,0.2c-0.1,0.1-0.3,0.2-0.5,0s-0.4-0.3-0.7-0.3c-0.1,0-0.3,0-0.4,0.1
					c-0.1,0.2-0.2,0.3-0.2,0.4c0,0.3,0.3,0.5,0.8,0.7c0.3,0.1,0.6,0.3,0.9,0.6c0.1,0.1,0.2,0.3,0.3,0.5c0.1,0.2,0.1,0.4,0.1,0.7
					c0,0.7-0.4,1.3-1.1,1.5h-0.1v0.6c0,0.1,0,0.2-0.1,0.3c0,0-0.1,0-0.2,0h-0.2c-0.1,0-0.2,0-0.3-0.1c-0.1-0.1-0.1-0.2-0.1-0.3V14
					h-0.1c-0.4-0.1-0.7-0.3-1-0.5C9.6,13.5,9.5,13.2,9.6,13.1L9.6,13.1z M6.5,20.5h17.8c0.2,0,0.4-0.2,0.4-0.4v-9.2
					c0-0.1,0-0.2,0.1-0.3s0.2-0.1,0.3-0.1h0.4c0.2,0,0.4,0.2,0.4,0.4c0,0,0,6.6,0,9.5c0,0.3-0.1,0.6-0.3,0.8
					c-0.2,0.2-0.5,0.3-0.8,0.3H6.5c-0.1,0-0.2,0-0.3-0.1s-0.1-0.2-0.1-0.3v-0.4C6.1,20.6,6.3,20.5,6.5,20.5z M23.5,8.7
					c0,0,0,6.6,0,9.5c0,0.3-0.1,0.6-0.3,0.8c-0.2,0.2-0.5,0.3-0.8,0.3H4.3c-0.1,0-0.2,0-0.3-0.1S3.9,19,3.9,18.9v-0.4
					c0-0.2,0.2-0.4,0.4-0.4h17.8c0.2,0,0.4-0.2,0.4-0.4v-9c0-0.2,0.2-0.4,0.4-0.4h0.4C23.3,8.3,23.5,8.5,23.5,8.7z"/>
			</g>
		</g>
	</g>
</g>
</svg>
