<?xml version="1.0" encoding="UTF-8"?>
<svg width="28px" height="28px" viewBox="0 0 28 28" version="1.1" xmlns="http://www.w3.org/2000/svg" xmlns:xlink="http://www.w3.org/1999/xlink">
    <!-- Generator: Sketch 63.1 (92452) - https://sketch.com -->
    <title>icon_no_room</title>
    <desc>Created with Sketch.</desc>
    <g id="Page-1" stroke="none" stroke-width="1" fill="none" fill-rule="evenodd">
        <g id="05-restaurant" transform="translate(-187.000000, -687.000000)">
            <g id="sliders" transform="translate(187.000000, 552.000000)">
                <g id="icon_no_room" transform="translate(0.000000, 135.000000)">
                    <rect id="Rectangle-Copy-2" fill="#FFFFFF" x="0" y="0" width="28" height="28"></rect>
                    <path d="M9.33668949,11.1550568 L9.46759968,7.74744376 C9.48332662,7.33620667 9.83507853,7 10.2492952,7 L18.7608941,7 C19.1751108,7 19.5268627,7.3364267 19.5425896,7.74744376 L19.6734998,11.1550568 C19.6892267,11.5662939 19.3633911,11.9025006 18.9489529,11.9025006 L18.5471406,11.9025006 L18.5471406,14.9761073 L17.7940193,14.9761073 L17.7940193,11.9027206 L11.1521547,11.9027206 L11.1521547,14.9763273 L10.3990334,14.9763273 L10.3990334,11.9027206 L10.0614579,11.9027206 C9.64701973,11.9027206 9.32096255,11.5662939 9.33668949,11.1550568 Z M20,16.0806606 L20,16.6417385 C20,17.0531956 19.661317,17.3898424 19.2471003,17.3898424 L18.9476238,17.3898424 L19.6066049,24 L18.8497181,24 L18.6397302,21.8923274 L10.3607128,21.8923274 L10.1507249,24 L9.3938381,24 L10.0528192,17.3898424 L9.75289972,17.3898424 C9.33868304,17.3898424 9,17.0531956 9,16.6417385 L9,16.0806606 C9,15.6692035 9.33868304,15.3325568 9.75289972,15.3325568 L19.2468788,15.3325568 C19.661317,15.3325568 20,15.6689835 20,16.0806606 Z M18.190737,17.3896223 L10.809706,17.3896223 L10.4353605,21.1440035 L18.5648611,21.1440035 L18.190737,17.3896223 Z" fill="#0F1762" fill-rule="nonzero"></path>
                </g>
            </g>
        </g>
    </g>
</svg>