<?xml version="1.0" encoding="UTF-8"?>
<svg width="14px" height="14px" viewBox="0 0 14 14" version="1.1" xmlns="http://www.w3.org/2000/svg" xmlns:xlink="http://www.w3.org/1999/xlink">
    <title>icon_distance</title>
    <g id="Page-1" stroke="none" stroke-width="1" fill="none" fill-rule="evenodd">
        <g id="04-carmelmarket" transform="translate(-929.000000, -176.000000)" fill="#4C3EFF" fill-rule="nonzero">
            <g id="Content" transform="translate(188.000000, 162.000000)">
                <g id="icon_note" transform="translate(740.000000, 11.000000)">
                    <g id="info" transform="translate(0.150849, 0.000000)">
                        <path d="M8.57958602,4.03481362 C8.57958602,4.03481362 8.57958602,4.05003101 8.57958602,4.03481362 C8.22958602,4.38481362 7.98610776,4.7804658 7.80349906,5.19133536 L5.50567297,4.62829188 C5.50567297,4.62829188 5.49045558,4.62829188 5.49045558,4.62829188 C5.47523819,4.62829188 5.4600208,4.62829188 5.42958602,4.62829188 C5.41436863,4.62829188 5.38393384,4.62829188 5.36871645,4.62829188 C5.35349906,4.62829188 5.33828167,4.62829188 5.30784689,4.62829188 C5.2926295,4.62829188 5.26219471,4.62829188 5.24697732,4.64350928 C5.24697732,4.64350928 5.23175993,4.64350928 5.23175993,4.64350928 L1.92958602,5.52611797 C1.29045558,5.69350928 0.849151235,6.27177014 0.849151235,6.92611797 L0.849151235,15.1130745 C0.849151235,15.5695962 1.06219471,15.9804658 1.41219471,16.2543788 C1.67089037,16.4522049 1.97523819,16.5587267 2.29480341,16.5587267 C2.41654254,16.5587267 2.55349906,16.5435093 2.67523819,16.5130745 L5.36871645,15.7978571 L9.52306428,16.8326397 C9.52306428,16.8326397 9.53828167,16.8326397 9.53828167,16.8326397 C9.56871645,16.8478571 9.61436863,16.8478571 9.6600208,16.8478571 C9.6600208,16.8478571 9.6600208,16.8478571 9.6600208,16.8478571 C9.69045558,16.8478571 9.73610776,16.8478571 9.76654254,16.8326397 C9.76654254,16.8326397 9.78175993,16.8326397 9.78175993,16.8326397 L13.3730643,15.950031 C14.0121947,15.7826397 14.4687165,15.2195962 14.4687165,14.550031 L14.4687165,7.70220493 C14.5904556,7.33698754 14.6513251,6.97177014 14.6513251,6.57611797 C14.6513251,5.63263971 14.2708904,4.73481362 13.6013251,4.06524841 C12.2165425,2.65003101 9.96436863,2.65003101 8.57958602,4.03481362 Z M4.83610776,14.8239441 L2.40132515,15.4782919 C2.27958602,15.5087267 2.17306428,15.4782919 2.06654254,15.4174223 C1.97523819,15.3413354 1.91436863,15.2348136 1.91436863,15.1130745 L1.91436863,6.91090058 C1.91436863,6.74350928 2.03610776,6.59133536 2.20349906,6.54568319 L4.83610776,5.84568319 L4.83610776,14.8239441 Z M9.1274121,15.600031 L5.91654254,14.8087267 L5.91654254,5.8304658 L7.5600208,6.22611797 C7.46871645,7.24568319 7.80349906,8.2804658 8.57958602,9.05655275 L9.1274121,9.60437884 L9.1274121,15.600031 Z M9.32523819,6.51524841 C9.32523819,5.54133536 10.1165425,4.73481362 11.105673,4.73481362 C12.0948034,4.73481362 12.8861078,5.52611797 12.8861078,6.51524841 C12.8861078,7.50437884 12.0948034,8.29568319 11.105673,8.29568319 C10.1165425,8.29568319 9.32523819,7.50437884 9.32523819,6.51524841 Z M13.4034991,14.5195962 C13.4034991,14.7022049 13.2817599,14.8543788 13.1143686,14.8848136 L10.1926295,15.600031 L10.1926295,10.6695962 L10.7252382,11.2022049 C10.8317599,11.3087267 10.9534991,11.3543788 11.105673,11.3543788 C11.2426295,11.3543788 11.379586,11.2935093 11.4861078,11.2022049 L13.4187165,9.26959623 L13.4187165,14.5195962 L13.4034991,14.5195962 Z" id="icon_distance"></path>
                    </g>
                </g>
            </g>
        </g>
    </g>
</svg>