<?xml version="1.0" encoding="UTF-8"?>
<svg width="284px" height="189px" viewBox="0 0 284 189" version="1.1" xmlns="http://www.w3.org/2000/svg" xmlns:xlink="http://www.w3.org/1999/xlink">
    <!-- Generator: Sketch 64 (93537) - https://sketch.com -->
    <title>bezalel</title>
    <desc>Created with Sketch.</desc>
    <g id="Page-1" stroke="none" stroke-width="1" fill="none" fill-rule="evenodd">
        <g id="02-homepage-1" transform="translate(-934.000000, -120.000000)">
            <g id="TLV-img" transform="translate(664.000000, 124.000000)">
                <g id="tlv-land">
                    <g id="bezalel" transform="translate(1.000000, 0.000000)">
                        <rect id="Rectangle" x="0" y="0" width="576" height="538"></rect>
                        <polygon stroke="#FFFFFF" stroke-width="5" fill="#D6F9ED" points="317.5 133 300.5 97 272 47.5 276 28.5 289 14 308.5 0 345.5 36 395.5 69.5 461 97 513 114 497.5 181.5"></polygon>
                        <path id="Path-10-Copy-7" d="M465.30705,84.8935979 C468.048895,82.8376436 471.956023,83.0565284 474.449747,85.5502525 C477.183418,88.2839226 477.183418,92.7160774 474.449747,95.4497475 C471.716077,98.1834175 467.283923,98.1834175 464.550253,95.4497475 C462.056528,92.9560234 461.837644,89.0488954 463.893598,86.3070503 L463.843146,86.2573593 C463.452621,85.866835 463.452621,85.23367 463.843146,84.8431458 C464.20363,84.4826618 464.770861,84.4549323 465.163152,84.7599571 L465.257359,84.8431458 Z M462.334725,81.93153 L462.428932,82.0147186 L463.136039,82.7218254 C463.526563,83.1123497 463.526563,83.7455147 463.136039,84.136039 C462.775555,84.4965229 462.208324,84.5242525 461.816033,84.2192276 L461.721825,84.136039 L461.014719,83.4289322 C460.624194,83.0384079 460.624194,82.4052429 461.014719,82.0147186 C461.375203,81.6542347 461.942434,81.6265051 462.334725,81.93153 Z M459.506298,79.1031029 L459.600505,79.1862915 L460.307612,79.8933983 C460.698136,80.2839226 460.698136,80.9170876 460.307612,81.3076118 C459.947128,81.6680958 459.379897,81.6958253 458.987606,81.3908005 L458.893398,81.3076118 L458.186292,80.6005051 C457.795767,80.2099808 457.795767,79.5768158 458.186292,79.1862915 C458.546775,78.8258075 459.114007,78.798078 459.506298,79.1031029 Z M456.677871,76.2746758 L456.772078,76.3578644 L457.479185,77.0649712 C457.869709,77.4554954 457.869709,78.0886604 457.479185,78.4791847 C457.118701,78.8396687 456.55147,78.8673982 456.159178,78.5623733 L456.064971,78.4791847 L455.357864,77.7720779 C454.96734,77.3815536 454.96734,76.7483887 455.357864,76.3578644 C455.718348,75.9973804 456.285579,75.9696509 456.677871,76.2746758 Z M453.849443,73.4462486 L453.943651,73.5294373 L454.650758,74.236544 C455.041282,74.6270683 455.041282,75.2602333 454.650758,75.6507576 C454.290274,76.0112416 453.723043,76.0389711 453.330751,75.7339462 L453.236544,75.6507576 L452.529437,74.9436508 C452.138913,74.5531265 452.138913,73.9199615 452.529437,73.5294373 C452.889921,73.1689533 453.457152,73.1412238 453.849443,73.4462486 Z M451.021016,70.6178215 L451.115224,70.7010101 L451.82233,71.4081169 C452.212855,71.7986412 452.212855,72.4318062 451.82233,72.8223305 C451.461847,73.1828144 450.894615,73.210544 450.502324,72.9055191 L450.408117,72.8223305 L449.70101,72.1152237 C449.310486,71.7246994 449.310486,71.0915344 449.70101,70.7010101 C450.061494,70.3405262 450.628725,70.3127966 451.021016,70.6178215 Z M448.192589,67.7893944 L448.286797,67.872583 L448.993903,68.5796898 C449.384428,68.9702141 449.384428,69.6033791 448.993903,69.9939033 C448.633419,70.3543873 448.066188,70.3821168 447.673897,70.077092 L447.57969,69.9939033 L446.872583,69.2867966 C446.482059,68.8962723 446.482059,68.2631073 446.872583,67.872583 C447.233067,67.512099 447.800298,67.4843695 448.192589,67.7893944 Z M445.364162,64.9609673 L445.458369,65.0441559 L446.165476,65.7512627 C446.556001,66.141787 446.556001,66.7749519 446.165476,67.1654762 C445.804992,67.5259602 445.237761,67.5536897 444.84547,67.2486648 L444.751263,67.1654762 L444.044156,66.4583694 C443.653632,66.0678451 443.653632,65.4346802 444.044156,65.0441559 C444.40464,64.6836719 444.971871,64.6559424 445.364162,64.9609673 Z M442.535735,62.1325401 L442.629942,62.2157288 L443.337049,62.9228355 C443.727573,63.3133598 443.727573,63.9465248 443.337049,64.3370491 C442.976565,64.6975331 442.409334,64.7252626 442.017043,64.4202377 L441.922836,64.3370491 L441.215729,63.6299423 C440.825204,63.239418 440.825204,62.606253 441.215729,62.2157288 C441.576213,61.8552448 442.143444,61.8275153 442.535735,62.1325401 Z M439.707308,59.304113 L439.801515,59.3873016 L440.508622,60.0944084 C440.899146,60.4849327 440.899146,61.1180977 440.508622,61.508622 C440.148138,61.8691059 439.580907,61.8968355 439.188616,61.5918106 L439.094408,61.508622 L438.387302,60.8015152 C437.996777,60.4109909 437.996777,59.7778259 438.387302,59.3873016 C438.747786,59.0268177 439.315017,58.9990881 439.707308,59.304113 Z M436.878881,56.4756859 L436.973088,56.5588745 L437.680195,57.2659813 C438.070719,57.6565056 438.070719,58.2896706 437.680195,58.6801948 C437.319711,59.0406788 436.75248,59.0684083 436.360189,58.7633835 L436.265981,58.6801948 L435.558875,57.9730881 C435.16835,57.5825638 435.16835,56.9493988 435.558875,56.5588745 C435.919358,56.1983905 436.48659,56.170661 436.878881,56.4756859 Z M434.050454,53.6472588 L434.144661,53.7304474 L434.851768,54.4375542 C435.242292,54.8280785 435.242292,55.4612434 434.851768,55.8517677 C434.491284,56.2122517 433.924053,56.2399812 433.531761,55.9349563 L433.437554,55.8517677 L432.730447,55.1446609 C432.339923,54.7541366 432.339923,54.1209717 432.730447,53.7304474 C433.090931,53.3699634 433.658162,53.3422339 434.050454,53.6472588 Z M431.222026,50.8188316 L431.316234,50.9020203 L432.023341,51.609127 C432.413865,51.9996513 432.413865,52.6328163 432.023341,53.0233406 C431.662857,53.3838246 431.095626,53.4115541 430.703334,53.1065292 L430.609127,53.0233406 L429.90202,52.3162338 C429.511496,51.9257095 429.511496,51.2925445 429.90202,50.9020203 C430.262504,50.5415363 430.829735,50.5138068 431.222026,50.8188316 Z M428.393599,47.9904045 L428.487807,48.0735931 L429.194913,48.7806999 C429.585438,49.1712242 429.585438,49.8043892 429.194913,50.1949135 C428.83443,50.5553974 428.267198,50.583127 427.874907,50.2781021 L427.7807,50.1949135 L427.073593,49.4878067 C426.683069,49.0972824 426.683069,48.4641174 427.073593,48.0735931 C427.434077,47.7131092 428.001308,47.6853796 428.393599,47.9904045 Z M425.565172,45.1619774 L425.65938,45.245166 L426.366486,45.9522728 C426.757011,46.3427971 426.757011,46.9759621 426.366486,47.3664863 C426.006002,47.7269703 425.438771,47.7546998 425.04648,47.449675 L424.952273,47.3664863 L424.245166,46.6593796 C423.854642,46.2688553 423.854642,45.6356903 424.245166,45.245166 C424.60565,44.884682 425.172881,44.8569525 425.565172,45.1619774 Z M422.736745,42.3335503 L422.830952,42.4167389 L423.538059,43.1238457 C423.928584,43.51437 423.928584,44.1475349 423.538059,44.5380592 C423.177575,44.8985432 422.610344,44.9262727 422.218053,44.6212478 L422.123846,44.5380592 L421.416739,43.8309524 C421.026215,43.4404281 421.026215,42.8072632 421.416739,42.4167389 C421.777223,42.0562549 422.344454,42.0285254 422.736745,42.3335503 Z M419.908318,39.5051231 L420.002525,39.5883118 L420.709632,40.2954185 C421.100156,40.6859428 421.100156,41.3191078 420.709632,41.7096321 C420.349148,42.0701161 419.781917,42.0978456 419.389626,41.7928207 L419.295419,41.7096321 L418.588312,41.0025253 C418.197787,40.612001 418.197787,39.978836 418.588312,39.5883118 C418.948796,39.2278278 419.516027,39.2000983 419.908318,39.5051231 Z M417.079891,36.676696 L417.174098,36.7598846 L417.881205,37.4669914 C418.271729,37.8575157 418.271729,38.4906807 417.881205,38.881205 C417.520721,39.2416889 416.95349,39.2694185 416.561199,38.9643936 L416.466991,38.881205 L415.759885,38.1740982 C415.36936,37.7835739 415.36936,37.1504089 415.759885,36.7598846 C416.120369,36.3994007 416.6876,36.3716711 417.079891,36.676696 Z M414.251464,33.8482689 L414.345671,33.9314575 L415.052778,34.6385643 C415.443302,35.0290886 415.443302,35.6622536 415.052778,36.0527778 C414.692294,36.4132618 414.125063,36.4409913 413.732772,36.1359665 L413.638564,36.0527778 L412.931458,35.3456711 C412.540933,34.9551468 412.540933,34.3219818 412.931458,33.9314575 C413.291941,33.5709735 413.859173,33.543244 414.251464,33.8482689 Z M411.423037,31.0198418 L411.517244,31.1030304 L412.224351,31.8101372 C412.614875,32.2006615 412.614875,32.8338264 412.224351,33.2243507 C411.863867,33.5848347 411.296636,33.6125642 410.904344,33.3075393 L410.810137,33.2243507 L410.10303,32.5172439 C409.712506,32.1267197 409.712506,31.4935547 410.10303,31.1030304 C410.463514,30.7425464 411.030745,30.7148169 411.423037,31.0198418 Z M407.524387,31.5 C408.076671,31.5 408.524387,31.9477153 408.524387,32.5 C408.524387,33.0128358 408.138346,33.4355072 407.641008,33.4932723 L407.524387,33.5 L406.524387,33.5 C405.972102,33.5 405.524387,33.0522847 405.524387,32.5 C405.524387,31.9871642 405.910427,31.5644928 406.407765,31.5067277 L406.524387,31.5 L407.524387,31.5 Z M403.524387,31.5 C404.076671,31.5 404.524387,31.9477153 404.524387,32.5 C404.524387,33.0128358 404.138346,33.4355072 403.641008,33.4932723 L403.524387,33.5 L402.524387,33.5 C401.972102,33.5 401.524387,33.0522847 401.524387,32.5 C401.524387,31.9871642 401.910427,31.5644928 402.407765,31.5067277 L402.524387,31.5 L403.524387,31.5 Z M399.524387,31.5 C400.076671,31.5 400.524387,31.9477153 400.524387,32.5 C400.524387,33.0128358 400.138346,33.4355072 399.641008,33.4932723 L399.524387,33.5 L398.524387,33.5 C397.972102,33.5 397.524387,33.0522847 397.524387,32.5 C397.524387,31.9871642 397.910427,31.5644928 398.407765,31.5067277 L398.524387,31.5 L399.524387,31.5 Z M395.524387,31.5 C396.076671,31.5 396.524387,31.9477153 396.524387,32.5 C396.524387,33.0128358 396.138346,33.4355072 395.641008,33.4932723 L395.524387,33.5 L394.524387,33.5 C393.972102,33.5 393.524387,33.0522847 393.524387,32.5 C393.524387,31.9871642 393.910427,31.5644928 394.407765,31.5067277 L394.524387,31.5 L395.524387,31.5 Z M391.524387,31.5 C392.076671,31.5 392.524387,31.9477153 392.524387,32.5 C392.524387,33.0128358 392.138346,33.4355072 391.641008,33.4932723 L391.524387,33.5 L390.524387,33.5 C389.972102,33.5 389.524387,33.0522847 389.524387,32.5 C389.524387,31.9871642 389.910427,31.5644928 390.407765,31.5067277 L390.524387,31.5 L391.524387,31.5 Z M387.524387,31.5 C388.076671,31.5 388.524387,31.9477153 388.524387,32.5 C388.524387,33.0128358 388.138346,33.4355072 387.641008,33.4932723 L387.524387,33.5 L386.524387,33.5 C385.972102,33.5 385.524387,33.0522847 385.524387,32.5 C385.524387,31.9871642 385.910427,31.5644928 386.407765,31.5067277 L386.524387,31.5 L387.524387,31.5 Z M383.524387,31.5 C384.076671,31.5 384.524387,31.9477153 384.524387,32.5 C384.524387,33.0128358 384.138346,33.4355072 383.641008,33.4932723 L383.524387,33.5 L382.524387,33.5 C381.972102,33.5 381.524387,33.0522847 381.524387,32.5 C381.524387,31.9871642 381.910427,31.5644928 382.407765,31.5067277 L382.524387,31.5 L383.524387,31.5 Z M379.524387,31.5 C380.076671,31.5 380.524387,31.9477153 380.524387,32.5 C380.524387,33.0128358 380.138346,33.4355072 379.641008,33.4932723 L379.524387,33.5 L378.524387,33.5 C377.972102,33.5 377.524387,33.0522847 377.524387,32.5 C377.524387,31.9871642 377.910427,31.5644928 378.407765,31.5067277 L378.524387,31.5 L379.524387,31.5 Z M375.524387,31.5 C376.076671,31.5 376.524387,31.9477153 376.524387,32.5 C376.524387,33.0128358 376.138346,33.4355072 375.641008,33.4932723 L375.524387,33.5 L374.524387,33.5 C373.972102,33.5 373.524387,33.0522847 373.524387,32.5 C373.524387,31.9871642 373.910427,31.5644928 374.407765,31.5067277 L374.524387,31.5 L375.524387,31.5 Z M371.524387,31.5 C372.076671,31.5 372.524387,31.9477153 372.524387,32.5 C372.524387,33.0128358 372.138346,33.4355072 371.641008,33.4932723 L371.524387,33.5 L370.524387,33.5 C369.972102,33.5 369.524387,33.0522847 369.524387,32.5 C369.524387,31.9871642 369.910427,31.5644928 370.407765,31.5067277 L370.524387,31.5 L371.524387,31.5 Z M367.524387,31.5 C368.076671,31.5 368.524387,31.9477153 368.524387,32.5 C368.524387,33.0128358 368.138346,33.4355072 367.641008,33.4932723 L367.524387,33.5 L366.524387,33.5 C365.972102,33.5 365.524387,33.0522847 365.524387,32.5 C365.524387,31.9871642 365.910427,31.5644928 366.407765,31.5067277 L366.524387,31.5 L367.524387,31.5 Z M363.524387,31.5 C364.076671,31.5 364.524387,31.9477153 364.524387,32.5 C364.524387,33.0128358 364.138346,33.4355072 363.641008,33.4932723 L363.524387,33.5 L362.524387,33.5 C361.972102,33.5 361.524387,33.0522847 361.524387,32.5 C361.524387,31.9871642 361.910427,31.5644928 362.407765,31.5067277 L362.524387,31.5 L363.524387,31.5 Z" fill="#0F1762" fill-rule="nonzero"></path>
                        <text id="Shuk-Bezalel" font-family="ProximaNova-Bold, Proxima Nova" font-size="14" font-weight="bold" line-spacing="18" fill="#0F1762">
                            <tspan x="472" y="36.5">Shuk Bezalel</tspan>
                        </text>
                    </g>
                </g>
            </g>
        </g>
    </g>
</svg>