<?xml version="1.0" encoding="UTF-8"?>
<svg width="192px" height="150px" viewBox="0 0 192 150" version="1.1" xmlns="http://www.w3.org/2000/svg" xmlns:xlink="http://www.w3.org/1999/xlink">
    <!-- Generator: Sketch 64 (93537) - https://sketch.com -->
    <title>chashmal 2</title>
    <desc>Created with Sketch.</desc>
    <g id="Page-1" stroke="none" stroke-width="1" fill="none" fill-rule="evenodd">
        <g id="02-homepage-1" transform="translate(-1039.000000, -420.000000)">
            <g id="TLV-img" transform="translate(664.000000, 124.000000)">
                <g id="tlv-land">
                    <g id="chashmal-2" transform="translate(0.500000, 0.000000)">
                        <rect id="Rectangle" x="0.5" y="0" width="576" height="538"></rect>
                        <polygon id="chashmal" stroke="#FFFFFF" stroke-width="5" fill="#FFD2D2" points="440.5 300 378 326 401 410.5 447.5 410.5 478 398 500 351 521 337 494.5 321 455 321"></polygon>
                        <path id="Path-10-Copy-5" d="M481.301302,417.8979 C484.040616,415.839452 487.947353,416.053878 490.443775,418.544288 C493.18074,421.274659 493.186084,425.706811 490.455712,428.443775 C487.725341,431.18074 483.293189,431.186084 480.556225,428.455712 C478.059537,425.965039 477.835907,422.058267 479.888442,419.313952 L479.838705,419.264853 C479.44771,418.8748 479.446947,418.241635 479.837,417.85064 C480.197049,417.489722 480.764246,417.461309 481.156905,417.76586 L481.251212,417.848935 Z M478.325069,414.940846 L478.419377,415.023921 L479.127336,415.730174 C479.518331,416.120227 479.519094,416.753392 479.129041,417.144387 C478.768992,417.505305 478.201795,417.533719 477.809136,417.229167 L477.714828,417.146092 L477.00687,416.439838 C476.615875,416.049785 476.615111,415.416621 477.005164,415.025626 C477.365213,414.664708 477.93241,414.636294 478.325069,414.940846 Z M475.493234,412.115831 L475.587541,412.198906 L476.2955,412.90516 C476.686495,413.295213 476.687258,413.928377 476.297205,414.319372 C475.937156,414.680291 475.369959,414.708704 474.9773,414.404153 L474.882993,414.321078 L474.175034,413.614824 C473.784039,413.224771 473.783276,412.591606 474.173329,412.200611 C474.533378,411.839693 475.100575,411.81128 475.493234,412.115831 Z M472.661398,409.290817 L472.755706,409.373892 L473.463664,410.080145 C473.854659,410.470198 473.855423,411.103363 473.46537,411.494358 C473.105321,411.855276 472.538124,411.88369 472.145465,411.579138 L472.051157,411.496063 L471.343198,410.789809 C470.952203,410.399756 470.95144,409.766592 471.341493,409.375597 C471.701542,409.014679 472.268739,408.986265 472.661398,409.290817 Z M469.829562,406.465802 L469.92387,406.548877 L470.631829,407.255131 C471.022824,407.645184 471.023587,408.278348 470.633534,408.669343 C470.273485,409.030262 469.706288,409.058675 469.313629,408.754124 L469.219322,408.671049 L468.511363,407.964795 C468.120368,407.574742 468.119604,406.941577 468.509657,406.550582 C468.869706,406.189664 469.436904,406.161251 469.829562,406.465802 Z M466.997727,403.640788 L467.092034,403.723863 L467.799993,404.430116 C468.190988,404.820169 468.191752,405.453334 467.801698,405.844329 C467.441649,406.205247 466.874452,406.233661 466.481794,405.929109 L466.387486,405.846034 L465.679527,405.13978 C465.288532,404.749727 465.287769,404.116563 465.677822,403.725568 C466.037871,403.36465 466.605068,403.336236 466.997727,403.640788 Z M464.165891,400.815773 L464.260199,400.898848 L464.968158,401.605102 C465.359153,401.995155 465.359916,402.628319 464.969863,403.019314 C464.609814,403.380233 464.042617,403.408646 463.649958,403.104094 L463.55565,403.02102 L462.847691,402.314766 C462.456697,401.924713 462.455933,401.291548 462.845986,400.900553 C463.206035,400.539635 463.773232,400.511222 464.165891,400.815773 Z M461.334055,397.990759 L461.428363,398.073834 L462.136322,398.780087 C462.527317,399.17014 462.52808,399.803305 462.138027,400.1943 C461.777978,400.555218 461.210781,400.583632 460.818122,400.27908 L460.723815,400.196005 L460.015856,399.489751 C459.624861,399.099698 459.624097,398.466534 460.014151,398.075539 C460.3742,397.71462 460.941397,397.686207 461.334055,397.990759 Z M458.50222,395.165744 L458.596527,395.248819 L459.304486,395.955073 C459.695481,396.345126 459.696245,396.97829 459.306192,397.369285 C458.946143,397.730204 458.378945,397.758617 457.986287,397.454065 L457.891979,397.370991 L457.18402,396.664737 C456.793025,396.274684 456.792262,395.641519 457.182315,395.250524 C457.542364,394.889606 458.109561,394.861192 458.50222,395.165744 Z M455.670384,392.34073 L455.764692,392.423805 L456.472651,393.130058 C456.863646,393.520111 456.864409,394.153276 456.474356,394.544271 C456.114307,394.905189 455.54711,394.933603 455.154451,394.629051 L455.060143,394.545976 L454.352185,393.839722 C453.96119,393.449669 453.960426,392.816505 454.350479,392.42551 C454.710528,392.064591 455.277726,392.036178 455.670384,392.34073 Z M452.838549,389.515715 L452.932856,389.59879 L453.640815,390.305044 C454.03181,390.695097 454.032574,391.328261 453.64252,391.719256 C453.282471,392.080175 452.715274,392.108588 452.322615,391.804036 L452.228308,391.720961 L451.520349,391.014708 C451.129354,390.624655 451.128591,389.99149 451.518644,389.600495 C451.878693,389.239577 452.44589,389.211163 452.838549,389.515715 Z M450.006713,386.690701 L450.101021,386.773776 L450.808979,387.480029 C451.199974,387.870082 451.200738,388.503247 450.810685,388.894242 C450.450636,389.25516 449.883439,389.283574 449.49078,388.979022 L449.396472,388.895947 L448.688513,388.189693 C448.297518,387.79964 448.296755,387.166476 448.686808,386.775481 C449.046857,386.414562 449.614054,386.386149 450.006713,386.690701 Z M447.174877,383.865686 L447.269185,383.948761 L447.977144,384.655015 C448.368139,385.045068 448.368902,385.678232 447.978849,386.069227 C447.6188,386.430146 447.051603,386.458559 446.658944,386.154007 L446.564637,386.070932 L445.856678,385.364679 C445.465683,384.974626 445.464919,384.341461 445.854972,383.950466 C446.215021,383.589548 446.782219,383.561134 447.174877,383.865686 Z M444.343042,381.040672 L444.437349,381.123746 L445.145308,381.83 C445.536303,382.220053 445.537067,382.853218 445.147014,383.244213 C444.786965,383.605131 444.219767,383.633545 443.827109,383.328993 L443.732801,383.245918 L443.024842,382.539664 C442.633847,382.149611 442.633084,381.516447 443.023137,381.125452 C443.383186,380.764533 443.950383,380.73612 444.343042,381.040672 Z M441.281766,379.5 C441.83405,379.5 442.281766,379.947715 442.281766,380.5 C442.281766,381.012836 441.895726,381.435507 441.398387,381.493272 L441.281766,381.5 L440.281766,381.5 C439.729481,381.5 439.281766,381.052285 439.281766,380.5 C439.281766,379.987164 439.667806,379.564493 440.165145,379.506728 L440.281766,379.5 L441.281766,379.5 Z M437.281766,379.5 C437.83405,379.5 438.281766,379.947715 438.281766,380.5 C438.281766,381.012836 437.895726,381.435507 437.398387,381.493272 L437.281766,381.5 L436.281766,381.5 C435.729481,381.5 435.281766,381.052285 435.281766,380.5 C435.281766,379.987164 435.667806,379.564493 436.165145,379.506728 L436.281766,379.5 L437.281766,379.5 Z M433.281766,379.5 C433.83405,379.5 434.281766,379.947715 434.281766,380.5 C434.281766,381.012836 433.895726,381.435507 433.398387,381.493272 L433.281766,381.5 L432.281766,381.5 C431.729481,381.5 431.281766,381.052285 431.281766,380.5 C431.281766,379.987164 431.667806,379.564493 432.165145,379.506728 L432.281766,379.5 L433.281766,379.5 Z M429.281766,379.5 C429.83405,379.5 430.281766,379.947715 430.281766,380.5 C430.281766,381.012836 429.895726,381.435507 429.398387,381.493272 L429.281766,381.5 L428.281766,381.5 C427.729481,381.5 427.281766,381.052285 427.281766,380.5 C427.281766,379.987164 427.667806,379.564493 428.165145,379.506728 L428.281766,379.5 L429.281766,379.5 Z M425.281766,379.5 C425.83405,379.5 426.281766,379.947715 426.281766,380.5 C426.281766,381.012836 425.895726,381.435507 425.398387,381.493272 L425.281766,381.5 L424.281766,381.5 C423.729481,381.5 423.281766,381.052285 423.281766,380.5 C423.281766,379.987164 423.667806,379.564493 424.165145,379.506728 L424.281766,379.5 L425.281766,379.5 Z M421.281766,379.5 C421.83405,379.5 422.281766,379.947715 422.281766,380.5 C422.281766,381.012836 421.895726,381.435507 421.398387,381.493272 L421.281766,381.5 L420.281766,381.5 C419.729481,381.5 419.281766,381.052285 419.281766,380.5 C419.281766,379.987164 419.667806,379.564493 420.165145,379.506728 L420.281766,379.5 L421.281766,379.5 Z" fill="#0F1762" fill-rule="nonzero"></path>
                        <text id="Gan-Hachashmal" font-family="ProximaNova-Bold, Proxima Nova" font-size="14" font-weight="bold" line-spacing="16" fill="#0F1762">
                            <tspan x="488.5" y="429.5">Gan </tspan>
                            <tspan x="488.5" y="445.5">Hachashmal</tspan>
                        </text>
                    </g>
                </g>
            </g>
        </g>
    </g>
</svg>