<?xml version="1.0" encoding="UTF-8"?>
<svg width="585px" height="534px" viewBox="0 0 585 534" version="1.1" xmlns="http://www.w3.org/2000/svg" xmlns:xlink="http://www.w3.org/1999/xlink">
    <!-- Generator: Sketch 64 (93537) - https://sketch.com -->
    <title>TLV img</title>
    <desc>Created with Sketch.</desc>
    <g id="Page-1" stroke="none" stroke-width="1" fill="none" fill-rule="evenodd">
        <g id="02-homepage-1" transform="translate(-665.000000, -120.000000)">
            <g id="TLV-img" transform="translate(664.000000, 124.000000)">
                <g id="tlv-land">
                    <polygon id="carmel" stroke="#FFFFFF" stroke-width="5" fill="#70C9BF" points="303 120.5 260 148.5 219.5 209 234.5 219.5 274.5 163.5 311.5 142.5"></polygon>
                    <polygon id="kerem" stroke="#FFFFFF" stroke-width="5" fill="#FFD2D2" points="297.5 105.5 276 97 243 120.5 233 109 224.5 109 180 185.5 216.5 208.5 258 145 301.5 115.5"></polygon>
                    <polygon id="nevezedek" stroke="#FFFFFF" stroke-width="5" fill="#70C9BF" points="272.5 301 206.5 278.5 195.5 305.5 165 281.5 144.5 305.5 137.5 338.5 124 358 111 358 94 388 115 403.5 144.5 448.5 237 403.5 216.5 358 254 348 265.5 338.5 265.5 324 277 324"></polygon>
                    <polygon id="levinsky" stroke="#FFFFFF" stroke-width="5" fill="#8CB4E6" points="393 415.5 379 485 339.5 482 268 492 260 429.5 326.5 410.5"></polygon>
                    <polygon id="binyamin" stroke="#FFFFFF" stroke-width="5" fill="#F8A798" points="268.5 346.5 222.5 359.5 251.5 429 311.5 410.5 326.5 407 396.5 410.5 373.5 321 355 275.5 311.5 153.5 277 172.5 240.5 224.5 204.5 253.5 210.5 275.5 277 291.5 280.5 326 268 328"></polygon>
                    <polygon id="lev" stroke="#FFFFFF" stroke-width="5" fill="#FAF0F2" points="318.5 140.5 495 187.5 483.5 233.5 477 253.5 439 295.5 373.5 321 337 219.5 325 180"></polygon>
                    <g id="chashmal-2" transform="translate(0.500000, 0.000000)">
                        <rect id="Rectangle" x="0.5" y="0" width="576" height="538"></rect>
                        <polygon id="chashmal" stroke="#FFFFFF" stroke-width="5" fill="#FFD2D2" points="440.5 300 378 326 401 410.5 447.5 410.5 478 398 500 351 521 337 494.5 321 455 321"></polygon>
                        <text id="Gan-Hachashmal" font-family="ProximaNova-Bold, Proxima Nova" font-size="14" font-weight="bold" line-spacing="16" fill="#0F1762">
                            <tspan x="488.5" y="429.5">Gan </tspan>
                            <tspan x="488.5" y="445.5">Hachashmal</tspan>
                        </text>
                        <path id="Path-10-Copy-10" d="M412.693635,373.910908 C415.504263,371.256426 419.93461,371.383007 422.589092,374.193635 C425.010443,376.757418 425.117776,380.668909 422.984725,383.350905 L460.431,423 L480.5,423 C481.012836,423 481.435507,423.38604 481.493272,423.883379 L481.5,424 C481.5,424.512836 481.11396,424.935507 480.616621,424.993272 L480.5,425 L460,425 C459.764175,425 459.53728,424.916719 459.358302,424.766963 L459.272987,424.686624 L421.530564,384.724259 C418.73116,386.70063 414.832234,386.370122 412.410908,383.806365 C409.756426,380.995737 409.883007,376.56539 412.693635,373.910908 Z" fill="#0F1762" fill-rule="nonzero"></path>
                        <path id="Path-10-Copy-10" d="M312.658524,458.944299 C315.45071,456.270426 319.881827,456.366338 322.555701,459.158524 C324.994699,461.705442 325.129141,465.616007 323.014817,468.312699 L374.427,522 L403.5,522 C404.012836,522 404.435507,522.38604 404.493272,522.883379 L404.5,523 C404.5,523.512836 404.11396,523.935507 403.616621,523.993272 L403.5,524 L374,524 C373.766237,524 373.541166,523.918164 373.362845,523.770741 L373.277757,523.691639 L321.570091,469.696222 C318.784434,471.691924 314.883313,471.388411 312.444299,468.841476 C309.770426,466.04929 309.866338,461.618173 312.658524,458.944299 Z" fill="#0F1762" fill-rule="nonzero"></path>
                    </g>
                    <g id="bezalel" transform="translate(273.000000, 0.000000)">
                        <polygon stroke="#FFFFFF" stroke-width="5" fill="#D6F9ED" points="45.5 133 28.5 97 0 47.5 4 28.5 17 14 36.5 0 73.5 36 123.5 69.5 189 97 241 114 225.5 181.5"></polygon>
                        <text id="Shuk-Bezalel" font-family="ProximaNova-Bold, Proxima Nova" font-size="14" font-weight="bold" line-spacing="18" fill="#0F1762">
                            <tspan x="200" y="36.5">Shuk Bezalel</tspan>
                        </text>
                    </g>
                </g>
                <g id="tlv" transform="translate(1.000000, 31.500000)" fill="#0F1762">
                    <path id="Path-10" d="M170.5,50 C170.721014,50 170.934484,50.0731645 171.10803,50.2060806 L171.207107,50.2928932 L224.30705,103.393598 C227.048895,101.337644 230.956023,101.556528 233.449747,104.050253 C236.183418,106.783923 236.183418,111.216077 233.449747,113.949747 C230.716077,116.683418 226.283923,116.683418 223.550253,113.949747 C221.056528,111.456023 220.837644,107.548895 222.893598,104.80705 L170.085,52 L137,52 C136.487164,52 136.064493,51.6139598 136.006728,51.1166211 L136,51 C136,50.4871642 136.38604,50.0644928 136.883379,50.0067277 L137,50 L170.5,50 Z" fill-rule="nonzero"></path>
                    <path id="Path-10-Copy" d="M172.5,111 C172.721014,111 172.934484,111.073164 173.10803,111.206081 L173.207107,111.292893 L226.30705,164.393598 C229.048895,162.337644 232.956023,162.556528 235.449747,165.050253 C238.183418,167.783923 238.183418,172.216077 235.449747,174.949747 C232.716077,177.683418 228.283923,177.683418 225.550253,174.949747 C223.056528,172.456023 222.837644,168.548895 224.893598,165.80705 L172.085,113 L139,113 C138.487164,113 138.064493,112.61396 138.006728,112.116621 L138,112 C138,111.487164 138.38604,111.064493 138.883379,111.006728 L139,111 L172.5,111 Z" fill-rule="nonzero"></path>
                    <path id="Path-10-Copy-2" d="M114.5,267 C114.721014,267 114.934484,267.073164 115.10803,267.206081 L115.207107,267.292893 L168.30705,320.393598 C171.048895,318.337644 174.956023,318.556528 177.449747,321.050253 C180.183418,323.783923 180.183418,328.216077 177.449747,330.949747 C174.716077,333.683418 170.283923,333.683418 167.550253,330.949747 C165.056528,328.456023 164.837644,324.548895 166.893598,321.80705 L114.085,269 L81,269 C80.4871642,269 80.0644928,268.61396 80.0067277,268.116621 L80,268 C80,267.487164 80.3860402,267.064493 80.8833789,267.006728 L81,267 L114.5,267 Z" fill-rule="nonzero"></path>
                    <path id="Path-10-Copy-4" d="M265.739722,359.022665 C267.936343,355.841351 272.296021,355.0431 275.477335,357.239722 C278.658649,359.436343 279.4569,363.796021 277.260278,366.977335 C275.256504,369.879353 271.452803,370.798371 268.38554,369.269985 L214.322897,447.568191 C214.159536,447.804782 213.903598,447.957943 213.622041,447.992536 L213.5,448 L180,448 C179.447715,448 179,447.552285 179,447 C179,446.487164 179.38604,446.064493 179.883379,446.006728 L180,446 L212.975,446 L266.740073,368.133778 C264.224245,365.807016 263.736006,361.924598 265.739722,359.022665 Z" fill-rule="nonzero"></path>
                    <path id="Path-10-Copy-8" d="M461.5,-0.5 C462.052285,-0.5 462.5,-0.0522847498 462.5,0.5 C462.5,1.01283584 462.11396,1.43550716 461.616621,1.49327227 L461.5,1.5 L444.407,1.5 L390.159671,54.3792356 C392.180237,57.1470848 391.911429,61.0509211 389.386161,63.5125273 C386.617819,66.2110796 382.186025,66.1545035 379.487473,63.3861611 C376.78892,60.6178187 376.845497,56.1860249 379.613839,53.4874727 C382.138965,51.0260049 386.048094,50.8568215 388.763442,52.9470144 L443.301977,-0.216075329 C443.457602,-0.367776575 443.657482,-0.463812321 443.870709,-0.491610313 L444,-0.5 L461.5,-0.5 Z" fill-rule="nonzero"></path>
                    <text id="Shuk-HaCarmel" font-family="ProximaNova-Bold, Proxima Nova" font-size="14" font-weight="bold" line-spacing="16">
                        <tspan x="36" y="117">Shuk HaCarmel</tspan>
                    </text>
                    <text id="Kerem-HaTemanim" font-family="ProximaNova-Bold, Proxima Nova" font-size="14" font-weight="bold" line-spacing="16">
                        <tspan x="11" y="55">Kerem HaTemanim</tspan>
                    </text>
                    <text id="Neve-Zedek" font-family="ProximaNova-Bold, Proxima Nova" font-size="14" font-weight="bold" line-spacing="21">
                        <tspan x="0" y="269">Neve Zedek</tspan>
                    </text>
                    <text id="Shuk-Levinsky" font-family="ProximaNova-Bold, Proxima Nova" font-size="14" font-weight="bold" line-spacing="21">
                        <tspan x="413" y="493">Shuk Levinsky</tspan>
                    </text>
                    <text id="Nachalat-binyamin-ar" font-family="ProximaNova-Bold, Proxima Nova" font-size="14" font-weight="bold" line-spacing="18">
                        <tspan x="116" y="450">Nachalat </tspan>
                        <tspan x="116" y="468">binyamin area</tspan>
                    </text>
                    <text id="Lev-Hair" font-family="ProximaNova-Bold, Proxima Nova" font-size="14" font-weight="bold" line-spacing="16">
                        <tspan x="533" y="169">Lev Hair</tspan>
                    </text>
                    <path id="Path-10-Copy-9" d="M525,163.5 C525.552285,163.5 526,163.947715 526,164.5 C526,165.012836 525.61396,165.435507 525.116621,165.493272 L525,165.5 L507.907,165.5 L453.659671,218.379236 C455.680237,221.147085 455.411429,225.050921 452.886161,227.512527 C450.117819,230.21108 445.686025,230.154503 442.987473,227.386161 C440.28892,224.617819 440.345497,220.186025 443.113839,217.487473 C445.638965,215.026005 449.548094,214.856821 452.263442,216.947014 L506.801977,163.783925 C506.957602,163.632223 507.157482,163.536188 507.370709,163.50839 L507.5,163.5 L525,163.5 Z" fill-rule="nonzero"></path>
                </g>
                <path d="M270,201.5 C259.505814,201.5 251,209.783429 251,219.932 C251,223.936571 252.325581,227.776571 254.755814,230.958286 L268.177326,248.622286 C268.619186,249.170857 269.281977,249.5 270,249.5 C270,249.5 270,249.5 270,249.5 C270.718023,249.5 271.380814,249.170857 271.822674,248.622286 L285.244186,230.958286 C287.729651,227.776571 289,223.936571 289,219.932 C289,209.783429 280.494186,201.5 270,201.5 Z M270,227.5 C265.605634,227.5 262,223.894366 262,219.5 C262,215.105634 265.605634,211.5 270,211.5 C274.394366,211.5 278,215.049296 278,219.443662 C278,223.894366 274.394366,227.5 270,227.5 Z" id="Kalisher" fill="#4C3EFF" fill-rule="nonzero"></path>
                <path d="M333,281 C322.505814,281 314,289.283429 314,299.432 C314,303.436571 315.325581,307.276571 317.755814,310.458286 L331.177326,328.122286 C331.619186,328.670857 332.281977,329 333,329 C333,329 333,329 333,329 C333.718023,329 334.380814,328.670857 334.822674,328.122286 L348.244186,310.458286 C350.729651,307.276571 352,303.436571 352,299.432 C352,289.283429 343.494186,281 333,281 Z M333,307 C328.605634,307 325,303.394366 325,299 C325,294.605634 328.605634,291 333,291 C337.394366,291 341,294.549296 341,298.943662 C341,303.394366 337.394366,307 333,307 Z" id="Psagot" fill="#4C3EFF" fill-rule="nonzero"></path>
            </g>
        </g>
    </g>
</svg>