<?xml version="1.0" encoding="UTF-8"?>
<svg width="28px" height="28px" viewBox="0 0 28 28" version="1.1" xmlns="http://www.w3.org/2000/svg" xmlns:xlink="http://www.w3.org/1999/xlink">
    <!-- Generator: Sketch 63.1 (92452) - https://sketch.com -->
    <title>cheap</title>
    <desc>Created with Sketch.</desc>
    <g id="Page-1" stroke="none" stroke-width="1" fill="none" fill-rule="evenodd">
        <g id="05-restaurant" transform="translate(-187.000000, -621.000000)">
            <g id="sliders" transform="translate(187.000000, 552.000000)">
                <g id="cheap" transform="translate(0.000000, 69.000000)">
                    <rect id="Rectangle-Copy" fill="#FFFFFF" x="0" y="0" width="28" height="28"></rect>
                    <path d="M14.2988316,6 C9.64852449,6 6.00529026,8.39700858 6.00529026,11.3932693 L6.00529026,14.9887822 C5.99823658,15.114524 5.99823658,15.2405692 6.00529026,15.366311 C6.08410462,16.0483295 6.33502703,16.6983732 6.73393711,17.2539553 C7.26999913,17.9947191 7.95938955,18.6082405 8.75400682,19.0517117 C10.4601841,19.9654312 12.3687375,20.4233401 14.2988316,20.3820515 C16.2249715,20.4126399 18.1270873,19.9465589 19.8258845,19.0277416 C20.6202819,18.5839542 21.3096101,17.9704881 21.8459542,17.2299852 C22.2463093,16.6847179 22.50315,16.0454946 22.5923729,15.3723035 C22.5993872,15.2445615 22.5993872,15.1165242 22.5923729,14.9887822 L22.5923729,11.3932693 C22.5923729,8.39700858 18.9491387,6 14.2988316,6 Z M14.2988316,7.19850429 C18.1494044,7.19850429 21.4075813,9.12210367 21.4075813,11.3932693 C21.4124276,11.4790922 21.4124276,11.5651249 21.4075813,11.6509477 C21.3591595,12.0794232 21.2109528,12.4901686 20.9751324,12.849452 L20.892197,12.9693024 C20.4395663,13.5579208 19.8680233,14.0421026 19.2157168,14.38953 L19.1564772,14.38953 L19.0972377,14.4194926 C17.6166054,15.2009046 15.9687981,15.6021902 14.2988316,15.5880343 C12.632349,15.6151464 10.9847342,15.2283111 9.50042554,14.4614403 L9.44118596,14.4314777 L9.3641745,14.38953 C8.72339928,14.0372199 8.16404157,13.551054 7.72323811,12.9633099 L7.65215061,12.8614371 C7.41294136,12.5028379 7.26072103,12.0922189 7.20785376,11.6629328 C7.19639489,11.573506 7.19045942,11.4834434 7.19008188,11.3932693 C7.19008188,9.12210367 10.4482588,7.19850429 14.2988316,7.19850429 Z" id="Shape" fill="#0F1762" fill-rule="nonzero"></path>
                    <path d="M12.085799,13.1923079 C11.780245,13.1923079 11.5325445,13.4400084 11.5325445,13.7455623 C11.5325445,14.0511163 11.780245,14.2988168 12.085799,14.2988168 L13.1923079,14.2988168 C13.1923079,14.6043708 13.4400084,14.8520713 13.7455623,14.8520713 C14.0511163,14.8520713 14.2988168,14.6043708 14.2988168,14.2988168 C15.2154788,14.2988168 15.9585802,13.5557154 15.9585802,12.6390534 C15.9585802,11.7223914 15.2154788,10.9792901 14.2988168,10.9792901 L14.2988168,9.87278117 L15.4053257,9.87278117 C15.7108797,9.87278117 15.9585802,9.62508072 15.9585802,9.31952672 C15.9585802,9.01397272 15.7108797,8.76627227 15.4053257,8.76627227 L14.2988168,8.76627227 C14.2988168,8.46071827 14.0511163,8.21301781 13.7455623,8.21301781 C13.4400084,8.21301781 13.1923079,8.46071827 13.1923079,8.76627227 C12.2756459,8.76627227 11.5325445,9.50937363 11.5325445,10.4260356 C11.5325445,11.3426976 12.2756459,12.085799 13.1923079,12.085799 L13.1923079,13.1923079 L12.085799,13.1923079 Z M12.6390534,10.4260356 C12.6390534,10.1204816 12.8867539,9.87278117 13.1923079,9.87278117 L13.1923079,10.9792901 C12.8867539,10.9792901 12.6390534,10.7315896 12.6390534,10.4260356 Z M14.2988168,12.085799 C14.6043708,12.085799 14.8520713,12.3334994 14.8520713,12.6390534 C14.8520713,12.9446074 14.6043708,13.1923079 14.2988168,13.1923079 L14.2988168,12.085799 Z" id="Shape" fill="#0F1762" fill-rule="nonzero"></path>
                </g>
            </g>
        </g>
    </g>
</svg>