<?xml version="1.0" encoding="UTF-8"?>
<svg width="41px" height="94px" viewBox="0 0 41 94" version="1.1" xmlns="http://www.w3.org/2000/svg" xmlns:xlink="http://www.w3.org/1999/xlink">
    <!-- Generator: Sketch 63.1 (92452) - https://sketch.com -->
    <title>icon_expensive </title>
    <desc>Created with Sketch.</desc>
    <g id="Page-1" stroke="none" stroke-width="1" fill="none" fill-rule="evenodd">
        <g id="05-restaurant" transform="translate(-441.000000, -621.000000)">
            <g id="sliders" transform="translate(187.000000, 552.000000)">
                <g id="icon_expensive-" transform="translate(254.000000, 69.000000)">
                    <rect id="Rectangle-Copy-4" fill="#FFFFFF" x="6" y="0" width="28" height="28"></rect>
                    <path d="M8,6.74285637 L8,16.3065002 C8.00668376,16.7201993 8.33366789,17.0518833 8.7346939,17.0518833 L26.8816332,17.0518833 C27.2826592,17.0518833 27.6096433,16.7201993 27.6163271,16.3065002 L27.6163271,6.74285637 C27.6083253,6.33014759 27.2817237,6 26.8816332,6 L8.7346939,6 C8.3346034,6 8.0080018,6.33014759 8,6.74285637 Z M15.9395921,13.0596621 L16.0571431,12.8827915 C16.1116584,12.7978609 16.1975896,12.7397582 16.2948243,12.7220826 C16.392059,12.7044069 16.4920625,12.7287097 16.5714288,12.7893028 C16.8296789,12.9989304 17.1389935,13.1309556 17.4653064,13.1708379 C17.6531741,13.1905221 17.839334,13.1196614 17.9697962,12.978807 C18.0439521,12.8725471 18.0802839,12.7431341 18.0726533,12.6124323 C18.0726533,12.1828895 17.751837,11.9933853 17.2302043,11.7179726 C16.9384585,11.5831195 16.6677485,11.4042971 16.426939,11.1873609 C16.2977334,11.0698258 16.1920737,10.9273353 16.1159186,10.767925 C16.0376665,10.5822775 15.9984373,10.3816271 16.0008166,10.1791987 C15.980396,9.51666112 16.400917,8.9253041 17.0195921,8.74654715 L17.0710207,8.73138681 L17.0710207,8.15024069 C17.0703683,8.05129475 17.1080085,7.95617012 17.1755925,7.88596639 C17.2431764,7.81576265 17.3351169,7.77628579 17.4310207,7.77628579 L17.5853064,7.77628579 C17.7854814,7.77628579 17.9477554,7.9437111 17.9477554,8.15024069 L17.9477554,8.71622648 L18.0065309,8.72886009 C18.3172064,8.79105186 18.6038214,8.94461235 18.831837,9.17103649 L18.8514289,9.19125027 C18.9850191,9.32921211 18.9914569,9.55061857 18.8661228,9.69659473 L18.711837,9.87346529 C18.5836895,10.0164881 18.3705972,10.0340766 18.2220411,9.91389284 C18.0343706,9.74677457 17.7985115,9.64819261 17.5510207,9.63342667 C17.4132079,9.615195 17.2746719,9.66111798 17.1729411,9.75875541 C17.0712103,9.85639285 17.0168148,9.99563828 17.02449,10.1387711 C17.02449,10.4824054 17.3134696,10.6441156 17.7836737,10.8816275 C18.0949171,11.0198158 18.3832994,11.2073749 18.6383676,11.4375064 C18.7756082,11.5731232 18.8854744,11.7354254 18.961633,11.9150569 C19.0453649,12.1240422 19.0870256,12.3484145 19.0840819,12.5745314 C19.1111955,13.2760555 18.6570687,13.9007796 17.996735,14.070351 L17.9453064,14.0855113 L17.9453064,14.6666575 C17.9453086,14.7656057 17.9070442,14.8604649 17.8390005,14.9301942 C17.7709568,14.9999236 17.678759,15.0387588 17.5828574,15.0380857 L17.4285717,15.0380857 C17.3322505,15.0401164 17.2391593,15.0022293 17.1701214,14.9328993 C17.1010835,14.8635692 17.06186,14.7685817 17.0612247,14.6691842 L17.0612247,14.1107786 L17.0048982,14.0956182 C16.6520041,13.9881802 16.3203487,13.8170883 16.0253063,13.5902738 C15.8626332,13.4707621 15.8243041,13.2380063 15.9395921,13.069769 L15.9395921,13.0596621 Z M12.7828573,20.4680119 L30.5428578,20.4680119 C30.7416803,20.4680119 30.9028578,20.3017178 30.9028578,20.0965837 L30.9028578,10.9321619 C30.9028556,10.8332137 30.94112,10.7383545 31.0091637,10.6686252 C31.0772074,10.5988958 31.1694052,10.5600606 31.2653068,10.5607251 L31.6424496,10.5607251 C31.8403151,10.5621225 32.0000007,10.7280105 32.0000007,10.9321619 C32.0000007,10.9321619 32.0000007,17.5749148 32.0000007,20.4098972 C32.0000007,20.725966 31.8781394,21.0290526 31.6612919,21.2523099 C31.4444445,21.4755671 31.1504255,21.6006545 30.8440823,21.599992 L12.7828573,21.599992 C12.6869557,21.6006566 12.5947579,21.5618214 12.5267142,21.492092 C12.4586705,21.4223626 12.4204083,21.3275035 12.4204083,21.2285553 L12.4204083,20.8419668 C12.4204083,20.6354372 12.5826822,20.4680119 12.7828573,20.4680119 Z M29.795919,8.66821876 C29.795919,8.66821876 29.795919,15.3160251 29.795919,18.1459541 C29.795919,18.4620228 29.6740577,18.7651095 29.4572102,18.9883667 C29.2403628,19.2116239 28.9463438,19.3367113 28.6400006,19.3360489 L10.5885715,19.3360489 C10.4926699,19.3367134 10.4004721,19.2978782 10.3324284,19.2281489 C10.2643847,19.1584195 10.2261225,19.0635603 10.2261225,18.9646121 L10.2261225,18.5780236 C10.2261225,18.371494 10.3883965,18.2040687 10.5885715,18.2040687 L28.348572,18.2040687 C28.543631,18.2041432 28.7032643,18.043924 28.708572,17.8427474 L28.708572,8.66821876 C28.7085312,8.46600878 28.8652776,8.30091731 29.0612251,8.29679058 L29.4383679,8.29679058 C29.6362334,8.29817936 29.795919,8.46406735 29.795919,8.66821876 Z" id="Shape" fill="#0F1762" fill-rule="nonzero"></path>
                    <rect id="Rectangle-Copy-5" fill="#FFFFFF" x="0" y="66" width="41" height="28"></rect>
                </g>
            </g>
        </g>
    </g>
</svg>