<?xml version="1.0" encoding="UTF-8"?>
<svg width="14px" height="13px" viewBox="0 0 14 13" version="1.1" xmlns="http://www.w3.org/2000/svg" xmlns:xlink="http://www.w3.org/1999/xlink">
    <!-- Generator: Sketch 63.1 (92452) - https://sketch.com -->
    <title>icon_note</title>
    <desc>Created with Sketch.</desc>
    <g id="Page-1" stroke="none" stroke-width="1" fill="none" fill-rule="evenodd">
        <g id="04-carmelmarket" transform="translate(-929.000000, -229.000000)" fill="#4C3EFF" fill-rule="nonzero">
            <g id="Content" transform="translate(188.000000, 162.000000)">
                <g id="icon_note" transform="translate(740.000000, 11.000000)">
                    <g id="info" transform="translate(0.150849, 0.000000)">
                        <g id="icon_note" transform="translate(1.000000, 56.000000)">
                            <path d="M11.402392,12.2453704 L2.13850309,12.2453704 C1.3753858,12.2453704 0.683256173,11.8549383 0.292824074,11.1805556 C-0.0976080247,10.5061728 -0.0976080247,9.70756173 0.292824074,9.05092593 L0.292824074,9.05092593 L4.92476852,1.06481481 C5.31520062,0.408179012 6.00733025,5.32907052e-15 6.77044753,5.32907052e-15 C7.53356481,5.32907052e-15 8.22569444,0.390432099 8.61612654,1.06481481 L13.248071,9.05092593 C13.6385031,9.72530864 13.6385031,10.5061728 13.248071,11.1805556 C12.8576389,11.8549383 12.1832562,12.2453704 11.402392,12.2453704 Z M1.51736111,9.76080247 C1.33989198,10.0802469 1.44637346,10.3641975 1.51736111,10.470679 C1.58834877,10.5771605 1.7658179,10.8256173 2.13850309,10.8256173 L11.402392,10.8256173 C11.7750772,10.8256173 11.9525463,10.5771605 12.023534,10.470679 C12.0945216,10.3641975 12.2010031,10.0802469 12.023534,9.76080247 L7.39158951,1.77469136 C7.21412037,1.45524691 6.89467593,1.41975309 6.77044753,1.41975309 C6.64621914,1.41975309 6.3445216,1.45524691 6.14930556,1.77469136 L1.51736111,9.76080247 Z" id="Shape"></path>
                            <path d="M6.77044753,10.1157407 C6.38001543,10.1157407 6.06057099,9.7962963 6.06057099,9.4058642 L6.06057099,6.03395062 C6.06057099,5.64351852 6.38001543,5.32407407 6.77044753,5.32407407 C7.16087963,5.32407407 7.48032407,5.64351852 7.48032407,6.03395062 L7.48032407,9.4058642 C7.48032407,9.7962963 7.16087963,10.1157407 6.77044753,10.1157407 Z" id="Path"></path>
                            <circle id="Oval" cx="6.77044753" cy="3.90432099" r="1"></circle>
                        </g>
                    </g>
                </g>
            </g>
        </g>
    </g>
</svg>