<?xml version="1.0" encoding="UTF-8"?>
<svg width="585px" height="534px" viewBox="0 0 585 534" version="1.1" xmlns="http://www.w3.org/2000/svg" xmlns:xlink="http://www.w3.org/1999/xlink">
    <!-- Generator: Sketch 64 (93537) - https://sketch.com -->
    <title>TLV img</title>
    <desc>Created with Sketch.</desc>
    <g id="Page-1" stroke="none" stroke-width="1" fill="none" fill-rule="evenodd">
        <g id="02-homepage-1" transform="translate(-665.000000, -120.000000)">
            <g id="TLV-img" transform="translate(665.000000, 124.000000)">
                <g id="tlv-land">
                    <g id="kerem" transform="translate(11.000000, 73.000000)">
                        <polygon stroke="#FFFFFF" stroke-width="5" fill="#FFD2D2" points="285.5 32.5 264 24 231 47.5 221 36 212.5 36 168 112.5 204.5 135.5 246 72 289.5 42.5"></polygon>
                        <path id="Path-10" d="M159.5,8.5 C159.721014,8.5 159.934484,8.57316447 160.10803,8.70608063 L160.207107,8.79289322 L213.30705,61.8935979 C216.048895,59.8376436 219.956023,60.0565284 222.449747,62.5502525 C225.183418,65.2839226 225.183418,69.7160774 222.449747,72.4497475 C219.716077,75.1834175 215.283923,75.1834175 212.550253,72.4497475 C210.056528,69.9560234 209.837644,66.0488954 211.893598,63.3070503 L159.085,10.5 L126,10.5 C125.487164,10.5 125.064493,10.1139598 125.006728,9.61662113 L125,9.5 C125,8.98716416 125.38604,8.56449284 125.883379,8.50672773 L126,8.5 L159.5,8.5 Z" fill="#0F1762" fill-rule="nonzero"></path>
                        <text id="Kerem-HaTemanim" font-family="ProximaNova-Bold, Proxima Nova" font-size="14" font-weight="bold" line-spacing="16" fill="#0F1762">
                            <tspan x="0" y="13.5">Kerem HaTemanim</tspan>
                        </text>
                    </g>
                    <g id="zedek" transform="translate(0.000000, 278.000000)">
                        <polygon id="nevezedek" stroke="#FFFFFF" stroke-width="5" fill="#70C9BF" points="271.5 23 205.5 0.5 194.5 27.5 164 3.5 143.5 27.5 136.5 60.5 123 80 110 80 93 110 114 125.5 143.5 170.5 236 125.5 215.5 80 253 70 264.5 60.5 264.5 46 276 46"></polygon>
                        <path id="Path-10-Copy-2" d="M114.5,20.5 C114.721014,20.5 114.934484,20.5731645 115.10803,20.7060806 L115.207107,20.7928932 L168.30705,73.8935979 C171.048895,71.8376436 174.956023,72.0565284 177.449747,74.5502525 C180.183418,77.2839226 180.183418,81.7160774 177.449747,84.4497475 C174.716077,87.1834175 170.283923,87.1834175 167.550253,84.4497475 C165.056528,81.9560234 164.837644,78.0488954 166.893598,75.3070503 L114.085,22.5 L81,22.5 C80.4871642,22.5 80.0644928,22.1139598 80.0067277,21.6166211 L80,21.5 C80,20.9871642 80.3860402,20.5644928 80.8833789,20.5067277 L81,20.5 L114.5,20.5 Z" fill="#0F1762" fill-rule="nonzero"></path>
                        <text id="Neve-Zedek" font-family="ProximaNova-Bold, Proxima Nova" font-size="14" font-weight="bold" line-spacing="21" fill="#0F1762">
                            <tspan x="0" y="22.5">Neve Zedek</tspan>
                        </text>
                    </g>
                    <g id="levinski" transform="translate(259.000000, 410.500000)">
                        <polygon id="levinsky" stroke="#FFFFFF" stroke-width="5" fill="#8CB4E6" points="133 5 119 74.5 79.5 71.5 8 81.5 0 19 66.5 0"></polygon>
                        <path id="Path-10-Copy-10" d="M53.1585239,48.4442993 C55.9507103,45.7704259 60.3818273,45.8663375 63.0557007,48.6585239 C65.4946986,51.2054421 65.6291407,55.1160066 63.5148173,57.8126993 L114.927,111.5 L144,111.5 C144.512836,111.5 144.935507,111.88604 144.993272,112.383379 L145,112.5 C145,113.012836 144.61396,113.435507 144.116621,113.493272 L144,113.5 L114.5,113.5 C114.266237,113.5 114.041166,113.418164 113.862845,113.270741 L113.777757,113.191639 L62.0700906,59.1962221 C59.2844336,61.1919237 55.3833134,60.8884111 52.9442993,58.3414761 C50.2704259,55.5492897 50.3663375,51.1181727 53.1585239,48.4442993 Z" fill="#0F1762" fill-rule="nonzero"></path>
                        <text id="Shuk-Levinsky" font-family="ProximaNova-Bold, Proxima Nova" font-size="14" font-weight="bold" line-spacing="21" fill="#0F1762">
                            <tspan x="154" y="114">Shuk Levinsky</tspan>
                        </text>
                    </g>
                    <g id="binyamin" transform="translate(115.500000, 153.500000)">
                        <polygon stroke="#FFFFFF" stroke-width="5" fill="#F8A798" points="152 193 106 206 135 275.5 195 257 210 253.5 280 257 257 167.5 238.5 122 195 0 160.5 19 124 71 88 100 94 122 160.5 138 164 172.5 151.5 174.5"></polygon>
                        <path id="Path-10-Copy-4" d="M150.239722,237.022665 C152.436343,233.841351 156.796021,233.0431 159.977335,235.239722 C163.158649,237.436343 163.9569,241.796021 161.760278,244.977335 C159.756504,247.879353 155.952803,248.798371 152.88554,247.269985 L98.8228969,325.568191 C98.6595363,325.804782 98.4035977,325.957943 98.1220406,325.992536 L98,326 L64.5,326 C63.9477153,326 63.5,325.552285 63.5,325 C63.5,324.487164 63.8860402,324.064493 64.3833789,324.006728 L64.5,324 L97.475,324 L151.240073,246.133778 C148.724245,243.807016 148.236006,239.924598 150.239722,237.022665 Z" fill="#0F1762" fill-rule="nonzero"></path>
                        <text id="Nachalat-binyamin-ar" font-family="ProximaNova-Bold, Proxima Nova" font-size="14" font-weight="bold" line-spacing="18" fill="#0F1762">
                            <tspan x="0.5" y="328">Nachalat </tspan>
                            <tspan x="0.5" y="346">binyamin area</tspan>
                        </text>
                    </g>
                    <g id="lev" transform="translate(317.500000, 140.000000)">
                        <polygon stroke="#FFFFFF" stroke-width="5" fill="#FAF0F2" points="0 0.5 176.5 47.5 165 93.5 158.5 113.5 120.5 155.5 55 181 18.5 79.5 6.5 40"></polygon>
                        <path id="Path-10-Copy-9" d="M207.5,55 C208.052285,55 208.5,55.4477153 208.5,56 C208.5,56.5128358 208.11396,56.9355072 207.616621,56.9932723 L207.5,57 L190.407,57 L136.159671,109.879236 C138.180237,112.647085 137.911429,116.550921 135.386161,119.012527 C132.617819,121.71108 128.186025,121.654503 125.487473,118.886161 C122.78892,116.117819 122.845497,111.686025 125.613839,108.987473 C128.138965,106.526005 132.048094,106.356821 134.763442,108.447014 L189.301977,55.2839247 C189.457602,55.1322234 189.657482,55.0361877 189.870709,55.0083897 L190,55 L207.5,55 Z" fill="#0F1762" fill-rule="nonzero"></path>
                        <text id="Lev-Hair" font-family="ProximaNova-Bold, Proxima Nova" font-size="14" font-weight="bold" line-spacing="16" fill="#0F1762">
                            <tspan x="215.5" y="60.5">Lev Hair</tspan>
                        </text>
                    </g>
                    <g id="hashmal" transform="translate(377.500000, 300.000000)">
                        <polygon id="chashmal" stroke="#FFFFFF" stroke-width="5" fill="#FFD2D2" points="62.5 0 0 26 23 110.5 69.5 110.5 100 98 122 51 143 37 116.5 21 77 21"></polygon>
                        <path id="Path-10-Copy-10" d="M34.6936353,73.9109079 C37.5042632,71.256426 41.9346101,71.3830073 44.5890921,74.1936353 C47.0104428,76.7574184 47.1177756,80.6689087 44.9847246,83.3509054 L82.431,123 L102.5,123 C103.012836,123 103.435507,123.38604 103.493272,123.883379 L103.5,124 C103.5,124.512836 103.11396,124.935507 102.616621,124.993272 L102.5,125 L82,125 C81.7641754,125 81.5372803,124.916719 81.3583023,124.766963 L81.2729868,124.686624 L43.5305641,84.7242586 C40.7311596,86.7006302 36.8322338,86.3701215 34.4109079,83.8063647 C31.756426,80.9957368 31.8830073,76.5653899 34.6936353,73.9109079 Z" fill="#0F1762" fill-rule="nonzero"></path>
                        <text id="Gan-Hachashmal" font-family="ProximaNova-Bold, Proxima Nova" font-size="14" font-weight="bold" line-spacing="16" fill="#0F1762">
                            <tspan x="110.5" y="129.5">Gan </tspan>
                            <tspan x="110.5" y="145.5">Hachashmal</tspan>
                        </text>
                    </g>
                    <g id="bezalel" transform="translate(272.000000, 0.000000)">
                        <polygon stroke="#FFFFFF" stroke-width="5" fill="#D6F9ED" points="45.5 133 28.5 97 0 47.5 4 28.5 17 14 36.5 0 73.5 36 123.5 69.5 189 97 241 114 225.5 181.5"></polygon>
                        <path id="Path-10-Copy-8" d="M189.5,31 C190.052285,31 190.5,31.4477153 190.5,32 C190.5,32.5128358 190.11396,32.9355072 189.616621,32.9932723 L189.5,33 L172.407,33 L118.159671,85.8792356 C120.180237,88.6470848 119.911429,92.5509211 117.386161,95.0125273 C114.617819,97.7110796 110.186025,97.6545035 107.487473,94.8861611 C104.78892,92.1178187 104.845497,87.6860249 107.613839,84.9874727 C110.138965,82.5260049 114.048094,82.3568215 116.763442,84.4470144 L171.301977,31.2839247 C171.457602,31.1322234 171.657482,31.0361877 171.870709,31.0083897 L172,31 L189.5,31 Z" fill="#0F1762" fill-rule="nonzero"></path>
                        <text id="Shuk-Bezalel" font-family="ProximaNova-Bold, Proxima Nova" font-size="14" font-weight="bold" line-spacing="18" fill="#0F1762">
                            <tspan x="200" y="36.5">Shuk Bezalel</tspan>
                        </text>
                    </g>
                    <g id="carmel" transform="translate(36.000000, 120.000000)">
                        <polygon stroke="#FFFFFF" stroke-width="5" fill="#70C9BF" points="266 0.5 223 28.5 182.5 89 197.5 99.5 237.5 43.5 274.5 22.5"></polygon>
                        <path id="Path-10-Copy" d="M136.5,22.5 C136.721014,22.5 136.934484,22.5731645 137.10803,22.7060806 L137.207107,22.7928932 L190.30705,75.8935979 C193.048895,73.8376436 196.956023,74.0565284 199.449747,76.5502525 C202.183418,79.2839226 202.183418,83.7160774 199.449747,86.4497475 C196.716077,89.1834175 192.283923,89.1834175 189.550253,86.4497475 C187.056528,83.9560234 186.837644,80.0488954 188.893598,77.3070503 L136.085,24.5 L103,24.5 C102.487164,24.5 102.064493,24.1139598 102.006728,23.6166211 L102,23.5 C102,22.9871642 102.38604,22.5644928 102.883379,22.5067277 L103,22.5 L136.5,22.5 Z" fill="#0F1762" fill-rule="nonzero"></path>
                        <text id="Shuk-HaCarmel" font-family="ProximaNova-Bold, Proxima Nova" font-size="14" font-weight="bold" line-spacing="16" fill="#0F1762">
                            <tspan x="0" y="28.5">Shuk HaCarmel</tspan>
                        </text>
                    </g>
                </g>
                <path d="M269,201.5 C258.505814,201.5 250,209.783429 250,219.932 C250,223.936571 251.325581,227.776571 253.755814,230.958286 L267.177326,248.622286 C267.619186,249.170857 268.281977,249.5 269,249.5 C269,249.5 269,249.5 269,249.5 C269.718023,249.5 270.380814,249.170857 270.822674,248.622286 L284.244186,230.958286 C286.729651,227.776571 288,223.936571 288,219.932 C288,209.783429 279.494186,201.5 269,201.5 Z M269,227.5 C264.605634,227.5 261,223.894366 261,219.5 C261,215.105634 264.605634,211.5 269,211.5 C273.394366,211.5 277,215.049296 277,219.443662 C277,223.894366 273.394366,227.5 269,227.5 Z" id="Kalisher" fill="#4C3EFF" fill-rule="nonzero"></path>
                <path d="M332,281 C321.505814,281 313,289.283429 313,299.432 C313,303.436571 314.325581,307.276571 316.755814,310.458286 L330.177326,328.122286 C330.619186,328.670857 331.281977,329 332,329 C332,329 332,329 332,329 C332.718023,329 333.380814,328.670857 333.822674,328.122286 L347.244186,310.458286 C349.729651,307.276571 351,303.436571 351,299.432 C351,289.283429 342.494186,281 332,281 Z M332,307 C327.605634,307 324,303.394366 324,299 C324,294.605634 327.605634,291 332,291 C336.394366,291 340,294.549296 340,298.943662 C340,303.394366 336.394366,307 332,307 Z" id="Psagot" fill="#4C3EFF" fill-rule="nonzero"></path>
            </g>
        </g>
    </g>
</svg>