<?xml version="1.0" encoding="UTF-8"?>
<svg width="585px" height="534px" viewBox="0 0 585 534" version="1.1" xmlns="http://www.w3.org/2000/svg" xmlns:xlink="http://www.w3.org/1999/xlink">
    <!-- Generator: Sketch 64 (93537) - https://sketch.com -->
    <title>TLV img</title>
    <desc>Created with Sketch.</desc>
    <g id="Page-1" stroke="none" stroke-width="1" fill="none" fill-rule="evenodd">
        <g id="02-homepage-1" transform="translate(-665.000000, -120.000000)">
            <g id="TLV-img" transform="translate(664.000000, 124.000000)">
                <g id="tlv-land">
                    <polygon id="carmel" stroke="#FFFFFF" stroke-width="5" fill="#70C9BF" points="303 120.5 260 148.5 219.5 209 234.5 219.5 274.5 163.5 311.5 142.5"></polygon>
                    <polygon id="kerem" stroke="#FFFFFF" stroke-width="5" fill="#FFD2D2" points="297.5 105.5 276 97 243 120.5 233 109 224.5 109 180 185.5 216.5 208.5 258 145 301.5 115.5"></polygon>
                    <polygon id="nevezedek" stroke="#FFFFFF" stroke-width="5" fill="#70C9BF" points="272.5 301 206.5 278.5 195.5 305.5 165 281.5 144.5 305.5 137.5 338.5 124 358 111 358 94 388 115 403.5 144.5 448.5 237 403.5 216.5 358 254 348 265.5 338.5 265.5 324 277 324"></polygon>
                    <polygon id="levinsky" stroke="#FFFFFF" stroke-width="5" fill="#8CB4E6" points="393 415.5 379 485 339.5 482 268 492 260 429.5 326.5 410.5"></polygon>
                    <polygon id="binyamin" stroke="#FFFFFF" stroke-width="5" fill="#F8A798" points="268.5 346.5 222.5 359.5 251.5 429 311.5 410.5 326.5 407 396.5 410.5 373.5 321 355 275.5 311.5 153.5 277 172.5 240.5 224.5 204.5 253.5 210.5 275.5 277 291.5 280.5 326 268 328"></polygon>
                    <polygon id="lev" stroke="#FFFFFF" stroke-width="5" fill="#FAF0F2" points="318.5 140.5 495 187.5 483.5 233.5 477 253.5 439 295.5 373.5 321 337 219.5 325 180"></polygon>
                    <g id="chashmal-2" transform="translate(0.500000, 0.000000)">
                        <rect id="Rectangle" x="0.5" y="0" width="576" height="538"></rect>
                        <polygon id="chashmal" stroke="#FFFFFF" stroke-width="5" fill="#FFD2D2" points="440.5 300 378 326 401 410.5 447.5 410.5 478 398 500 351 521 337 494.5 321 455 321"></polygon>
                        <path id="Path-10-Copy-5" d="M442.396175,379.5 C442.61684,379.5 442.829999,379.572935 443.00341,379.705473 L443.102428,379.792041 L481.301302,417.8979 C484.040616,415.839452 487.947353,416.053878 490.443775,418.544288 C493.18074,421.274659 493.186084,425.706811 490.455712,428.443775 C487.725341,431.18074 483.293189,431.186084 480.556225,428.455712 C478.059842,425.965343 477.835962,422.059222 479.88769,419.314958 L441.983,381.5 L417.5,381.5 C416.987164,381.5 416.564493,381.11396 416.506728,380.616621 L416.5,380.5 C416.5,379.987164 416.88604,379.564493 417.383379,379.506728 L417.5,379.5 L442.396175,379.5 Z" fill="#0F1762" fill-rule="nonzero"></path>
                        <text id="Gan-Hachashmal" font-family="ProximaNova-Bold, Proxima Nova" font-size="14" font-weight="bold" line-spacing="16" fill="#0F1762">
                            <tspan x="488.5" y="429.5">Gan </tspan>
                            <tspan x="488.5" y="445.5">Hachashmal</tspan>
                        </text>
                    </g>
                    <g id="bezalel" transform="translate(273.000000, 0.000000)">
                        <polygon stroke="#FFFFFF" stroke-width="5" fill="#D6F9ED" points="45.5 133 28.5 97 0 47.5 4 28.5 17 14 36.5 0 73.5 36 123.5 69.5 189 97 241 114 225.5 181.5"></polygon>
                        <text id="Shuk-Bezalel" font-family="ProximaNova-Bold, Proxima Nova" font-size="14" font-weight="bold" line-spacing="18" fill="#0F1762">
                            <tspan x="200" y="36.5">Shuk Bezalel</tspan>
                        </text>
                    </g>
                </g>
                <g id="tlv" transform="translate(1.000000, 31.500000)" fill="#0F1762">
                    <path id="Path-10" d="M170.5,50 C170.721014,50 170.934484,50.0731645 171.10803,50.2060806 L171.207107,50.2928932 L224.30705,103.393598 C227.048895,101.337644 230.956023,101.556528 233.449747,104.050253 C236.183418,106.783923 236.183418,111.216077 233.449747,113.949747 C230.716077,116.683418 226.283923,116.683418 223.550253,113.949747 C221.056528,111.456023 220.837644,107.548895 222.893598,104.80705 L170.085,52 L137,52 C136.487164,52 136.064493,51.6139598 136.006728,51.1166211 L136,51 C136,50.4871642 136.38604,50.0644928 136.883379,50.0067277 L137,50 L170.5,50 Z" fill-rule="nonzero"></path>
                    <path id="Path-10-Copy-6" d="M470.5,163 C470.721014,163 470.934484,163.073164 471.10803,163.206081 L471.207107,163.292893 L524.30705,216.393598 C527.048895,214.337644 530.956023,214.556528 533.449747,217.050253 C536.183418,219.783923 536.183418,224.216077 533.449747,226.949747 C530.716077,229.683418 526.283923,229.683418 523.550253,226.949747 C521.056528,224.456023 520.837644,220.548895 522.893598,217.80705 L470.085,165 L449,165 C448.487164,165 448.064493,164.61396 448.006728,164.116621 L448,164 C448,163.487164 448.38604,163.064493 448.883379,163.006728 L449,163 L470.5,163 Z" fill-rule="nonzero"></path>
                    <path id="Path-10-Copy-7" d="M406.5,-0.5 C406.721014,-0.5 406.934484,-0.426835528 407.10803,-0.293919373 L407.207107,-0.207106781 L460.30705,52.8935979 C463.048895,50.8376436 466.956023,51.0565284 469.449747,53.5502525 C472.183418,56.2839226 472.183418,60.7160774 469.449747,63.4497475 C466.716077,66.1834175 462.283923,66.1834175 459.550253,63.4497475 C457.056528,60.9560234 456.837644,57.0488954 458.893598,54.3070503 L406.085,1.5 L385,1.5 C384.487164,1.5 384.064493,1.11395981 384.006728,0.616621125 L384,0.5 C384,-0.0128358391 384.38604,-0.435507161 384.883379,-0.493272269 L385,-0.5 L406.5,-0.5 Z" fill-rule="nonzero"></path>
                    <path id="Path-10-Copy" d="M172.5,111 C172.721014,111 172.934484,111.073164 173.10803,111.206081 L173.207107,111.292893 L226.30705,164.393598 C229.048895,162.337644 232.956023,162.556528 235.449747,165.050253 C238.183418,167.783923 238.183418,172.216077 235.449747,174.949747 C232.716077,177.683418 228.283923,177.683418 225.550253,174.949747 C223.056528,172.456023 222.837644,168.548895 224.893598,165.80705 L172.085,113 L139,113 C138.487164,113 138.064493,112.61396 138.006728,112.116621 L138,112 C138,111.487164 138.38604,111.064493 138.883379,111.006728 L139,111 L172.5,111 Z" fill-rule="nonzero"></path>
                    <path id="Path-10-Copy-2" d="M114.5,267 C114.721014,267 114.934484,267.073164 115.10803,267.206081 L115.207107,267.292893 L168.30705,320.393598 C171.048895,318.337644 174.956023,318.556528 177.449747,321.050253 C180.183418,323.783923 180.183418,328.216077 177.449747,330.949747 C174.716077,333.683418 170.283923,333.683418 167.550253,330.949747 C165.056528,328.456023 164.837644,324.548895 166.893598,321.80705 L114.085,269 L81,269 C80.4871642,269 80.0644928,268.61396 80.0067277,268.116621 L80,268 C80,267.487164 80.3860402,267.064493 80.8833789,267.006728 L81,267 L114.5,267 Z" fill-rule="nonzero"></path>
                    <path id="Path-10-Copy-3" d="M350.5,431 C350.721014,431 350.934484,431.073164 351.10803,431.206081 L351.207107,431.292893 L404.30705,484.393598 C407.048895,482.337644 410.956023,482.556528 413.449747,485.050253 C416.183418,487.783923 416.183418,492.216077 413.449747,494.949747 C410.716077,497.683418 406.283923,497.683418 403.550253,494.949747 C401.056528,492.456023 400.837644,488.548895 402.893598,485.80705 L350.085,433 L317,433 C316.487164,433 316.064493,432.61396 316.006728,432.116621 L316,432 C316,431.487164 316.38604,431.064493 316.883379,431.006728 L317,431 L350.5,431 Z" fill-rule="nonzero"></path>
                    <path id="Path-10-Copy-4" d="M265.739722,359.022665 C267.936343,355.841351 272.296021,355.0431 275.477335,357.239722 C278.658649,359.436343 279.4569,363.796021 277.260278,366.977335 C275.256504,369.879353 271.452803,370.798371 268.38554,369.269985 L214.322897,447.568191 C214.159536,447.804782 213.903598,447.957943 213.622041,447.992536 L213.5,448 L180,448 C179.447715,448 179,447.552285 179,447 C179,446.487164 179.38604,446.064493 179.883379,446.006728 L180,446 L212.975,446 L266.740073,368.133778 C264.224245,365.807016 263.736006,361.924598 265.739722,359.022665 Z" fill-rule="nonzero"></path>
                    <text id="Shuk-HaCarmel" font-family="ProximaNova-Bold, Proxima Nova" font-size="14" font-weight="bold" line-spacing="16">
                        <tspan x="36" y="117">Shuk HaCarmel</tspan>
                    </text>
                    <text id="Kerem-HaTemanim" font-family="ProximaNova-Bold, Proxima Nova" font-size="14" font-weight="bold" line-spacing="16">
                        <tspan x="11" y="55">Kerem HaTemanim</tspan>
                    </text>
                    <text id="Neve-Zedek" font-family="ProximaNova-Bold, Proxima Nova" font-size="14" font-weight="bold" line-spacing="21">
                        <tspan x="0" y="269">Neve Zedek</tspan>
                    </text>
                    <text id="Shuk-Levinsky" font-family="ProximaNova-Bold, Proxima Nova" font-size="14" font-weight="bold" line-spacing="21">
                        <tspan x="413" y="493">Shuk Levinsky</tspan>
                    </text>
                    <text id="Nachalat-binyamin-ar" font-family="ProximaNova-Bold, Proxima Nova" font-size="14" font-weight="bold" line-spacing="18">
                        <tspan x="116" y="450">Nachalat </tspan>
                        <tspan x="116" y="468">binyamin area</tspan>
                    </text>
                    <text id="Lev-Hair" font-family="ProximaNova-Bold, Proxima Nova" font-size="14" font-weight="bold" line-spacing="16">
                        <tspan x="533" y="169">Lev Hair</tspan>
                    </text>
                </g>
                <path d="M270,201.5 C259.505814,201.5 251,209.783429 251,219.932 C251,223.936571 252.325581,227.776571 254.755814,230.958286 L268.177326,248.622286 C268.619186,249.170857 269.281977,249.5 270,249.5 C270,249.5 270,249.5 270,249.5 C270.718023,249.5 271.380814,249.170857 271.822674,248.622286 L285.244186,230.958286 C287.729651,227.776571 289,223.936571 289,219.932 C289,209.783429 280.494186,201.5 270,201.5 Z M270,227.5 C265.605634,227.5 262,223.894366 262,219.5 C262,215.105634 265.605634,211.5 270,211.5 C274.394366,211.5 278,215.049296 278,219.443662 C278,223.894366 274.394366,227.5 270,227.5 Z" id="Kalisher" fill="#4C3EFF" fill-rule="nonzero"></path>
                <path d="M333,281 C322.505814,281 314,289.283429 314,299.432 C314,303.436571 315.325581,307.276571 317.755814,310.458286 L331.177326,328.122286 C331.619186,328.670857 332.281977,329 333,329 C333,329 333,329 333,329 C333.718023,329 334.380814,328.670857 334.822674,328.122286 L348.244186,310.458286 C350.729651,307.276571 352,303.436571 352,299.432 C352,289.283429 343.494186,281 333,281 Z M333,307 C328.605634,307 325,303.394366 325,299 C325,294.605634 328.605634,291 333,291 C337.394366,291 341,294.549296 341,298.943662 C341,303.394366 337.394366,307 333,307 Z" id="Psagot" fill="#4C3EFF" fill-rule="nonzero"></path>
            </g>
        </g>
    </g>
</svg>