<?xml version="1.0" encoding="utf-8"?>
<!-- Generator: Adobe Illustrator 24.0.3, SVG Export Plug-In . SVG Version: 6.00 Build 0)  -->
<svg version="1.1" id="Layer_1" xmlns="http://www.w3.org/2000/svg" xmlns:xlink="http://www.w3.org/1999/xlink" x="0px" y="0px"
	 viewBox="0 0 28 28" style="enable-background:new 0 0 28 28;" xml:space="preserve">
<style type="text/css">
	.st0{fill-rule:evenodd;clip-rule:evenodd;fill:#FFFFFF;}
	.st1{fill:#0F1762;}
</style>
<title>icon_expensive</title>
<desc>Created with Sketch.</desc>
<g id="Page-1">
	<g id="_x30_5-restaurant" transform="translate(-441.000000, -621.000000)">
		<g id="sliders" transform="translate(187.000000, 552.000000)">
			<g id="icon_expensive-" transform="translate(254.000000, 69.000000)">
				<rect id="Rectangle-Copy-4" class="st0" width="28" height="28"/>
				<path id="Shape" class="st1" d="M2,6.7v9.6c0,0.4,0.3,0.7,0.7,0.7h18.1c0.4,0,0.7-0.3,0.7-0.7V6.7c0-0.4-0.3-0.7-0.7-0.7H2.7
					C2.3,6,2,6.3,2,6.7z M9.9,13.1l0.1-0.2c0.1-0.1,0.1-0.1,0.2-0.2c0.1,0,0.2,0,0.3,0.1c0.3,0.2,0.6,0.3,0.9,0.4
					c0.2,0,0.4-0.1,0.5-0.2c0.1-0.1,0.1-0.2,0.1-0.4c0-0.4-0.3-0.6-0.8-0.9c-0.3-0.1-0.6-0.3-0.8-0.5c-0.1-0.1-0.2-0.3-0.3-0.4
					C10,10.6,10,10.4,10,10.2c0-0.7,0.4-1.3,1-1.4l0.1,0V8.2c0-0.1,0-0.2,0.1-0.3s0.2-0.1,0.3-0.1h0.2c0.2,0,0.4,0.2,0.4,0.4v0.6
					l0.1,0c0.3,0.1,0.6,0.2,0.8,0.4l0,0c0.1,0.1,0.1,0.4,0,0.5l-0.2,0.2c-0.1,0.1-0.3,0.2-0.5,0c-0.2-0.2-0.4-0.3-0.7-0.3
					c-0.1,0-0.3,0-0.4,0.1C11.1,9.9,11,10,11,10.1c0,0.3,0.3,0.5,0.8,0.7c0.3,0.1,0.6,0.3,0.9,0.6c0.1,0.1,0.2,0.3,0.3,0.5
					c0.1,0.2,0.1,0.4,0.1,0.7c0,0.7-0.4,1.3-1.1,1.5l-0.1,0v0.6c0,0.1,0,0.2-0.1,0.3C11.8,15,11.7,15,11.6,15h-0.2
					c-0.1,0-0.2,0-0.3-0.1c-0.1-0.1-0.1-0.2-0.1-0.3v-0.6l-0.1,0c-0.4-0.1-0.7-0.3-1-0.5C9.9,13.5,9.8,13.2,9.9,13.1L9.9,13.1z
					 M6.8,20.5h17.8c0.2,0,0.4-0.2,0.4-0.4v-9.2c0-0.1,0-0.2,0.1-0.3c0.1-0.1,0.2-0.1,0.3-0.1h0.4c0.2,0,0.4,0.2,0.4,0.4
					c0,0,0,6.6,0,9.5c0,0.3-0.1,0.6-0.3,0.8c-0.2,0.2-0.5,0.3-0.8,0.3H6.8c-0.1,0-0.2,0-0.3-0.1s-0.1-0.2-0.1-0.3v-0.4
					C6.4,20.6,6.6,20.5,6.8,20.5z M23.8,8.7c0,0,0,6.6,0,9.5c0,0.3-0.1,0.6-0.3,0.8c-0.2,0.2-0.5,0.3-0.8,0.3H4.6
					c-0.1,0-0.2,0-0.3-0.1c-0.1-0.1-0.1-0.2-0.1-0.3v-0.4c0-0.2,0.2-0.4,0.4-0.4h17.8c0.2,0,0.4-0.2,0.4-0.4V8.7
					c0-0.2,0.2-0.4,0.4-0.4h0.4C23.6,8.3,23.8,8.5,23.8,8.7z"/>
			</g>
		</g>
	</g>
</g>
</svg>
