<?xml version="1.0" encoding="UTF-8"?>
<svg width="28px" height="28px" viewBox="0 0 28 28" version="1.1" xmlns="http://www.w3.org/2000/svg" xmlns:xlink="http://www.w3.org/1999/xlink">
    <!-- Generator: Sketch 63.1 (92452) - https://sketch.com -->
    <title>icon_fast</title>
    <desc>Created with Sketch.</desc>
    <g id="Page-1" stroke="none" stroke-width="1" fill="none" fill-rule="evenodd">
        <g id="05-restaurant" transform="translate(-437.000000, -552.000000)">
            <g id="sliders" transform="translate(187.000000, 552.000000)">
                <g id="icon_fast" transform="translate(250.000000, 0.000000)">
                    <rect id="Rectangle-Copy-3" fill="#FFFFFF" x="0" y="0" width="28" height="28"></rect>
                    <path d="M12.9241195,19.9214097 C13.7994582,19.8292688 14.9972903,20.1287268 14.9972903,20.1287268 C16.4945803,20.9579951 15.6422767,21.5338759 15.6422767,21.5338759 L10.9200544,21.5338759 C10.0216804,21.6029816 8.20189711,20.8888894 8.20189711,20.8888894 C6.72764232,22.040651 5.48373985,21.0962065 5.48373985,21.0962065 C4.40108399,19.9905154 5.73712739,18.8157186 5.73712739,18.8157186 C4.93089431,15.1991874 6.3360434,13.1029813 6.3360434,13.1029813 C8.80081311,8.9105693 13.7303525,10.7533878 13.7303525,10.7533878 C15.3428187,11.1680219 15.273713,10.1084013 15.273713,10.1084013 C15.2276426,9.92411946 15.3658539,9.37127392 15.3658539,9.37127392 C11.2195124,9.32520346 10.0677508,7.41327928 10.0677508,7.41327928 C14.1219515,6.2384825 16.1490518,7.85094867 16.1490518,7.85094867 L16.6788621,7.43631452 C14.1219515,5.75474265 14.9051493,2.11517615 14.9051493,2.11517615 C18.1300817,3.79674802 18.4986454,7.09078605 18.4986454,7.09078605 C20.5027105,7.45934975 20.9403799,8.70325222 20.9403799,8.70325222 C21.3089435,9.32520346 21.7005425,9.71680238 21.7005425,9.71680238 C22.2303528,10.2235775 21.8617891,10.4539298 21.8617891,10.4539298 C21.7235777,11.4905152 20.6869923,11.7439027 20.6869923,11.7439027 C20.6869923,11.7439027 20.6639571,11.7439027 20.6639571,11.7669379 C20.0189706,12.1585369 20.1341468,13.0108404 20.1341468,13.0108404 C20.7791332,15.5907863 17.7154475,17.5027105 17.7154475,17.5027105 C17.8075884,17.8943094 17.5081304,19.8983745 17.5081304,19.8983745 C17.46206,20.0365859 17.5311657,20.1747973 17.5311657,20.1747973 C17.7384827,20.1747973 18.1531169,20.3360439 18.1531169,20.3360439 C18.7520329,20.7967485 18.360434,21.349594 18.360434,21.349594 C17.7384827,21.6951225 16.7249326,21.349594 16.7249326,21.349594 C15.9186995,21.142277 15.4119244,18.8387539 15.4119244,18.8387539 C15.0433607,19.5067756 12.9241195,19.9214097 12.9241195,19.9214097 Z M20.3414638,9.48645007 C20.4796752,9.48645007 20.5948514,9.37127392 20.5948514,9.23306253 C20.5948514,9.09485115 20.4796752,8.97967499 20.3414638,8.97967499 C20.2032525,8.97967499 20.0880763,9.09485115 20.0880763,9.23306253 C20.0880763,9.37127392 20.2032525,9.48645007 20.3414638,9.48645007 Z" id="Shape" fill="#0F1762" fill-rule="nonzero"></path>
                </g>
            </g>
        </g>
    </g>
</svg>