<?xml version="1.0" encoding="UTF-8"?>
<svg width="28px" height="28px" viewBox="0 0 28 28" version="1.1" xmlns="http://www.w3.org/2000/svg" xmlns:xlink="http://www.w3.org/1999/xlink">
    <!-- Generator: Sketch 62 (91390) - https://sketch.com -->
    <title>icon_expensive</title>
    <desc>Created with Sketch.</desc>
    <g id="Page-1" stroke="none" stroke-width="1" fill="none" fill-rule="evenodd">
        <g id="icon_expensive" fill-rule="nonzero">
            <rect id="Rectangle-Copy-4" fill="#FFFFFF" x="0" y="0" width="28" height="28"></rect>
            <path d="M2,6.74285637 L2,16.3065002 C2.00668376,16.7201993 2.33366789,17.0518833 2.7346939,17.0518833 L20.8816332,17.0518833 C21.2826592,17.0518833 21.6096433,16.7201993 21.6163271,16.3065002 L21.6163271,6.74285637 C21.6083253,6.33014759 21.2817237,6 20.8816332,6 L2.7346939,6 C2.3346034,6 2.0080018,6.33014759 2,6.74285637 Z M9.9395921,13.0596621 L10.0571431,12.8827915 C10.1116584,12.7978609 10.1975896,12.7397582 10.2948243,12.7220826 C10.392059,12.7044069 10.4920625,12.7287097 10.5714288,12.7893028 C10.8296789,12.9989304 11.1389935,13.1309556 11.4653064,13.1708379 C11.6531741,13.1905221 11.839334,13.1196614 11.9697962,12.978807 C12.0439521,12.8725471 12.0802839,12.7431341 12.0726533,12.6124323 C12.0726533,12.1828895 11.751837,11.9933853 11.2302043,11.7179726 C10.9384585,11.5831195 10.6677485,11.4042971 10.426939,11.1873609 C10.2977334,11.0698258 10.1920737,10.9273353 10.1159186,10.767925 C10.0376665,10.5822775 9.9984373,10.3816271 10.0008166,10.1791987 C9.980396,9.51666112 10.400917,8.9253041 11.0195921,8.74654715 L11.0710207,8.73138681 L11.0710207,8.15024069 C11.0703683,8.05129475 11.1080085,7.95617012 11.1755925,7.88596639 C11.2431764,7.81576265 11.3351169,7.77628579 11.4310207,7.77628579 L11.5853064,7.77628579 C11.7854814,7.77628579 11.9477554,7.9437111 11.9477554,8.15024069 L11.9477554,8.71622648 L12.0065309,8.72886009 C12.3172064,8.79105186 12.6038214,8.94461235 12.831837,9.17103649 L12.8514289,9.19125027 C12.9850191,9.32921211 12.9914569,9.55061857 12.8661228,9.69659473 L12.711837,9.87346529 C12.5836895,10.0164881 12.3705972,10.0340766 12.2220411,9.91389284 C12.0343706,9.74677457 11.7985115,9.64819261 11.5510207,9.63342667 C11.4132079,9.615195 11.2746719,9.66111798 11.1729411,9.75875541 C11.0712103,9.85639285 11.0168148,9.99563828 11.02449,10.1387711 C11.02449,10.4824054 11.3134696,10.6441156 11.7836737,10.8816275 C12.0949171,11.0198158 12.3832994,11.2073749 12.6383676,11.4375064 C12.7756082,11.5731232 12.8854744,11.7354254 12.961633,11.9150569 C13.0453649,12.1240422 13.0870256,12.3484145 13.0840819,12.5745314 C13.1111955,13.2760555 12.6570687,13.9007796 11.996735,14.070351 L11.9453064,14.0855113 L11.9453064,14.6666575 C11.9453086,14.7656057 11.9070442,14.8604649 11.8390005,14.9301942 C11.7709568,14.9999236 11.678759,15.0387588 11.5828574,15.0380857 L11.4285717,15.0380857 C11.3322505,15.0401164 11.2391593,15.0022293 11.1701214,14.9328993 C11.1010835,14.8635692 11.06186,14.7685817 11.0612247,14.6691842 L11.0612247,14.1107786 L11.0048982,14.0956182 C10.6520041,13.9881802 10.3203487,13.8170883 10.0253063,13.5902738 C9.8626332,13.4707621 9.8243041,13.2380063 9.9395921,13.069769 L9.9395921,13.0596621 Z M6.7828573,20.4680119 L24.5428578,20.4680119 C24.7416803,20.4680119 24.9028578,20.3017178 24.9028578,20.0965837 L24.9028578,10.9321619 C24.9028556,10.8332137 24.94112,10.7383545 25.0091637,10.6686252 C25.0772074,10.5988958 25.1694052,10.5600606 25.2653068,10.5607167 L25.6424496,10.5607167 C25.8403151,10.5621225 26.0000007,10.7280105 26.0000007,10.9321619 C26.0000007,10.9321619 26.0000007,17.5749148 26.0000007,20.4098972 C26.0000007,20.725966 25.8781394,21.0290526 25.6612919,21.2523099 C25.4444445,21.4755671 25.1504255,21.6006545 24.8440823,21.6000004 L6.7828573,21.6000004 C6.6869557,21.6006566 6.5947579,21.5618214 6.5267142,21.492092 C6.4586705,21.4223626 6.4204083,21.3275035 6.4204083,21.2285553 L6.4204083,20.8419668 C6.4204083,20.6354372 6.5826822,20.4680119 6.7828573,20.4680119 Z M23.795919,8.66821876 C23.795919,8.66821876 23.795919,15.3160251 23.795919,18.1459541 C23.795919,18.4620228 23.6740577,18.7651095 23.4572102,18.9883667 C23.2403628,19.2116239 22.9463438,19.3367113 22.6400006,19.3360573 L4.5885715,19.3360573 C4.4926699,19.3367134 4.4004721,19.2978782 4.3324284,19.2281489 C4.2643847,19.1584195 4.2261225,19.0635603 4.2261225,18.9646121 L4.2261225,18.5780236 C4.2261225,18.371494 4.3883965,18.2040687 4.5885715,18.2040687 L22.348572,18.2040687 C22.543631,18.2041432 22.7032643,18.043924 22.708572,17.8427474 L22.708572,8.66821876 C22.7085312,8.46600878 22.8652776,8.30091731 23.0612251,8.29679058 L23.4383679,8.29679058 C23.6362334,8.29817936 23.795919,8.46406735 23.795919,8.66821876 Z" id="Shape" fill="#0F1762"></path>
        </g>
    </g>
</svg>