<?xml version="1.0" encoding="UTF-8"?>
<svg width="36px" height="18px" viewBox="0 0 36 18" version="1.1" xmlns="http://www.w3.org/2000/svg" xmlns:xlink="http://www.w3.org/1999/xlink">
    <!-- Generator: Sketch 63.1 (92452) - https://sketch.com -->
    <title>icon_room</title>
    <desc>Created with Sketch.</desc>
    <g id="Page-1" stroke="none" stroke-width="1" fill="none" fill-rule="evenodd">
        <g id="05-restaurant" transform="translate(-444.000000, -693.000000)" fill="#0F1762" fill-rule="nonzero">
            <g id="sliders" transform="translate(187.000000, 552.000000)">
                <g id="icon_room" transform="translate(257.000000, 141.000000)">
                    <path d="M0.736677663,4.96933858 L0.867587852,1.56172552 C0.883314795,1.15048843 1.23506671,0.814281757 1.64928338,0.814281757 L10.1608823,0.814281757 C10.5750989,0.814281757 10.9268508,1.15070846 10.9425778,1.56172552 L11.073488,4.96933858 C11.0892149,5.38057567 10.7633792,5.71678234 10.3489411,5.71678234 L9.94712873,5.71678234 L9.94712873,8.79038903 L9.19400751,8.79038903 L9.19400751,5.71700237 L2.55214283,5.71700237 L2.55214283,8.79060906 L1.7990216,8.79060906 L1.7990216,5.71700237 L1.46144609,5.71700237 C1.04700791,5.71700237 0.72095072,5.38057567 0.736677663,4.96933858 Z M11.3999882,9.89494237 L11.3999882,10.4560203 C11.3999882,10.8674774 11.0613051,11.2041241 10.6470885,11.2041241 L10.347612,11.2041241 L11.0065931,17.8142818 L10.2497063,17.8142818 L10.0397183,15.7066092 L1.76070102,15.7066092 L1.5507131,17.8142818 L0.793826274,17.8142818 L1.45280734,11.2041241 L1.15288789,11.2041241 C0.738671219,11.2041241 0.399988174,10.8674774 0.399988174,10.4560203 L0.399988174,9.89494237 C0.399988174,9.48348525 0.738671219,9.14683851 1.15288789,9.14683851 L10.646867,9.14683851 C11.0613051,9.14683851 11.3999882,9.48326522 11.3999882,9.89494237 Z M9.59072519,11.2039041 L2.20969418,11.2039041 L1.83534863,14.9582853 L9.96484923,14.9582853 L9.59072519,11.2039041 Z" id="Shape-Copy"></path>
                    <path d="M12.7366777,4.96933858 L12.8675879,1.56172552 C12.8833148,1.15048843 13.2350667,0.814281757 13.6492834,0.814281757 L22.1608823,0.814281757 C22.5750989,0.814281757 22.9268508,1.15070846 22.9425778,1.56172552 L23.073488,4.96933858 C23.0892149,5.38057567 22.7633792,5.71678234 22.3489411,5.71678234 L21.9471287,5.71678234 L21.9471287,8.79038903 L21.1940075,8.79038903 L21.1940075,5.71700237 L14.5521428,5.71700237 L14.5521428,8.79060906 L13.7990216,8.79060906 L13.7990216,5.71700237 L13.4614461,5.71700237 C13.0470079,5.71700237 12.7209507,5.38057567 12.7366777,4.96933858 Z M23.3999882,9.89494237 L23.3999882,10.4560203 C23.3999882,10.8674774 23.0613051,11.2041241 22.6470885,11.2041241 L22.347612,11.2041241 L23.0065931,17.8142818 L22.2497063,17.8142818 L22.0397183,15.7066092 L13.760701,15.7066092 L13.5507131,17.8142818 L12.7938263,17.8142818 L13.4528073,11.2041241 L13.1528879,11.2041241 C12.7386712,11.2041241 12.3999882,10.8674774 12.3999882,10.4560203 L12.3999882,9.89494237 C12.3999882,9.48348525 12.7386712,9.14683851 13.1528879,9.14683851 L22.646867,9.14683851 C23.0613051,9.14683851 23.3999882,9.48326522 23.3999882,9.89494237 Z M21.5907252,11.2039041 L14.2096942,11.2039041 L13.8353486,14.9582853 L21.9648492,14.9582853 L21.5907252,11.2039041 Z" id="Shape-Copy-2"></path>
                    <path d="M24.7366777,4.96933858 L24.8675879,1.56172552 C24.8833148,1.15048843 25.2350667,0.814281757 25.6492834,0.814281757 L34.1608823,0.814281757 C34.5750989,0.814281757 34.9268508,1.15070846 34.9425778,1.56172552 L35.073488,4.96933858 C35.0892149,5.38057567 34.7633792,5.71678234 34.3489411,5.71678234 L33.9471287,5.71678234 L33.9471287,8.79038903 L33.1940075,8.79038903 L33.1940075,5.71700237 L26.5521428,5.71700237 L26.5521428,8.79060906 L25.7990216,8.79060906 L25.7990216,5.71700237 L25.4614461,5.71700237 C25.0470079,5.71700237 24.7209507,5.38057567 24.7366777,4.96933858 Z M35.3999882,9.89494237 L35.3999882,10.4560203 C35.3999882,10.8674774 35.0613051,11.2041241 34.6470885,11.2041241 L34.347612,11.2041241 L35.0065931,17.8142818 L34.2497063,17.8142818 L34.0397183,15.7066092 L25.760701,15.7066092 L25.5507131,17.8142818 L24.7938263,17.8142818 L25.4528073,11.2041241 L25.1528879,11.2041241 C24.7386712,11.2041241 24.3999882,10.8674774 24.3999882,10.4560203 L24.3999882,9.89494237 C24.3999882,9.48348525 24.7386712,9.14683851 25.1528879,9.14683851 L34.646867,9.14683851 C35.0613051,9.14683851 35.3999882,9.48326522 35.3999882,9.89494237 Z M33.5907252,11.2039041 L26.2096942,11.2039041 L25.8353486,14.9582853 L33.9648492,14.9582853 L33.5907252,11.2039041 Z" id="Shape-Copy-3"></path>
                </g>
            </g>
        </g>
    </g>
</svg>